<svg width="24" height="24" viewBox="0 0 24 24" fill="none" xmlns="http://www.w3.org/2000/svg">
    <path fill-rule="evenodd" clip-rule="evenodd" d="M17.1698 8.93635C17.4866 9.26824 17.4744 9.79411 17.1425 10.1109L11.0501 15.9263C10.7291 16.2327 10.2239 16.2327 9.90287 15.9263L6.85675 13.0186C6.52486 12.7018 6.51263 12.1759 6.82944 11.844C7.14625 11.5121 7.67212 11.4999 8.00401 11.8167L10.4765 14.1769L15.9952 8.90903C16.3271 8.59222 16.853 8.60445 17.1698 8.93635Z" fill="#040B1D"/>
    <path fill-rule="evenodd" clip-rule="evenodd" d="M11.9992 2.86222C6.95219 2.86222 2.86076 6.95365 2.86076 12.0007C2.86076 17.0477 6.95219 21.1391 11.9992 21.1391C17.0463 21.1391 21.1377 17.0477 21.1377 12.0007C21.1377 6.95365 17.0463 2.86222 11.9992 2.86222ZM1.19922 12.0007C1.19922 6.03601 6.03454 1.20068 11.9992 1.20068C17.9639 1.20068 22.7992 6.03601 22.7992 12.0007C22.7992 17.9654 17.9639 22.8007 11.9992 22.8007C6.03454 22.8007 1.19922 17.9654 1.19922 12.0007Z" fill="#040B1D"/>
</svg>
