<svg width="24" height="24" viewBox="0 0 24 24" fill="none" xmlns="http://www.w3.org/2000/svg">
<path fill-rule="evenodd" clip-rule="evenodd" d="M17.1698 8.93683C17.4866 9.26873 17.4744 9.7946 17.1425 10.1114L11.0501 15.9268C10.7291 16.2332 10.2239 16.2332 9.90287 15.9268L6.85675 13.0191C6.52486 12.7023 6.51263 12.1764 6.82944 11.8445C7.14625 11.5126 7.67212 11.5004 8.00401 11.8172L10.4765 14.1773L15.9952 8.90951C16.3271 8.59271 16.853 8.60494 17.1698 8.93683Z" fill="#040B1D"/>
<path fill-rule="evenodd" clip-rule="evenodd" d="M12.0002 2.86271C6.95316 2.86271 2.86173 6.95414 2.86173 12.0012C2.86173 17.0482 6.95316 21.1396 12.0002 21.1396C17.0472 21.1396 21.1387 17.0482 21.1387 12.0012C21.1387 6.95414 17.0472 2.86271 12.0002 2.86271ZM1.2002 12.0012C1.2002 6.0365 6.03552 1.20117 12.0002 1.20117C17.9649 1.20117 22.8002 6.0365 22.8002 12.0012C22.8002 17.9658 17.9649 22.8012 12.0002 22.8012C6.03552 22.8012 1.2002 17.9658 1.2002 12.0012Z" fill="#040B1D"/>
</svg>
