<svg width="24" height="24" viewBox="0 0 24 24" fill="none" xmlns="http://www.w3.org/2000/svg">
    <path d="M24 17.9997C24 19.4723 22.806 20.6663 21.3333 20.6663H2.66667C1.194 20.6663 0 19.4723 0 17.9997V5.99967C0 4.52701 1.194 3.33301 2.66667 3.33301H21.3333C22.806 3.33301 24 4.52701 24 5.99967V17.9997Z" fill="#DE2910"/>
    <path d="M7.42375 5.98473L7.91442 6.22206L8.30709 5.84473L8.23309 6.38473L8.71309 6.64206L8.17709 6.73806L8.08109 7.27406L7.82375 6.79406L7.28375 6.86806L7.66109 6.47539L7.42375 5.98473ZM10.5338 7.94539L10.2964 8.43539L10.6738 8.82873L10.1344 8.75406L9.87709 9.23473L9.78109 8.69806L9.24442 8.60206L9.72509 8.34473L9.65042 7.80539L10.0438 8.18273L10.5338 7.94539ZM9.89575 10.4647L10.0744 10.9794L10.6191 10.9907L10.1851 11.3194L10.3431 11.8414L9.89575 11.5301L9.44842 11.8414L9.60575 11.3194L9.17175 10.9907L9.71642 10.9794L9.89575 10.4647ZM7.42375 12.6514L7.91442 12.8887L8.30709 12.5114L8.23309 13.0514L8.71309 13.3087L8.17709 13.4047L8.08109 13.9407L7.82375 13.4607L7.28375 13.5347L7.66109 13.1421L7.42375 12.6514ZM4.66642 7.30073L5.28575 9.08139L7.16975 9.12006L5.66775 10.2587L6.21375 12.0627L4.66642 10.9861L3.11909 12.0627L3.66509 10.2587L2.16309 9.12006L4.04709 9.08139L4.66642 7.30073Z" fill="#FFDE02"/>
</svg>
