<svg width="24" height="24" viewBox="0 0 24 24" fill="none" xmlns="http://www.w3.org/2000/svg">
    <path d="M3 14C2.45185 14 1.98148 13.8037 1.58889 13.4111C1.1963 13.0185 1 12.5481 1 12C1 11.4519 1.1963 10.9815 1.58889 10.5889C1.98148 10.1963 2.45185 10 3 10C3.54815 10 4.01852 10.1963 4.41111 10.5889C4.8037 10.9815 5 11.4519 5 12C5 12.363 4.90741 12.6963 4.72222 13C4.54444 13.3037 4.3037 13.5481 4 13.7333C3.7037 13.9111 3.37037 14 3 14ZM11.5333 14C10.9852 14 10.5148 13.8037 10.1222 13.4111C9.72963 13.0185 9.53333 12.5481 9.53333 12C9.53333 11.4519 9.72963 10.9815 10.1222 10.5889C10.5148 10.1963 10.9852 10 11.5333 10C12.0815 10 12.5519 10.1963 12.9444 10.5889C13.337 10.9815 13.5333 11.4519 13.5333 12C13.5333 12.363 13.4407 12.6963 13.2556 13C13.0778 13.3037 12.837 13.5481 12.5333 13.7333C12.237 13.9111 11.9037 14 11.5333 14ZM20.0667 14C19.5185 14 19.0481 13.8037 18.6556 13.4111C18.263 13.0185 18.0667 12.5481 18.0667 12C18.0667 11.4519 18.263 10.9815 18.6556 10.5889C19.0481 10.1963 19.5185 10 20.0667 10C20.6148 10 21.0852 10.1963 21.4778 10.5889C21.8704 10.9815 22.0667 11.4519 22.0667 12C22.0667 12.363 21.9741 12.6963 21.7889 13C21.6111 13.3037 21.3704 13.5481 21.0667 13.7333C20.7704 13.9111 20.437 14 20.0667 14Z" fill="#9CAAB7"/>
</svg>
