<svg width="24" height="24" viewBox="0 0 24 24" fill="none" xmlns="http://www.w3.org/2000/svg">
    <path fill-rule="evenodd" clip-rule="evenodd" d="M7.5 3.74902C7.5 3.33481 7.83579 2.99902 8.25 2.99902H20.25C20.6642 2.99902 21 3.33481 21 3.74902V15.749C21 16.1632 20.6642 16.499 20.25 16.499H15.75C15.3358 16.499 15 16.1632 15 15.749C15 15.3348 15.3358 14.999 15.75 14.999H19.5V4.49902H9V8.24902C9 8.66324 8.66421 8.99902 8.25 8.99902C7.83579 8.99902 7.5 8.66324 7.5 8.24902V3.74902Z" fill="#9CAAB7"/>
    <path fill-rule="evenodd" clip-rule="evenodd" d="M3 8.24902C3 7.83481 3.33579 7.49902 3.75 7.49902H15.75C16.1642 7.49902 16.5 7.83481 16.5 8.24902V20.249C16.5 20.6632 16.1642 20.999 15.75 20.999H3.75C3.33579 20.999 3 20.6632 3 20.249V8.24902ZM4.5 8.99902V19.499H15V8.99902H4.5Z" fill="#9CAAB7"/>
</svg>
