<svg width="34" height="29" viewBox="0 0 34 29" fill="none" xmlns="http://www.w3.org/2000/svg">
    <path fill-rule="evenodd" clip-rule="evenodd" d="M0.75 3.16666C0.75 1.78594 1.86929 0.666656 3.25 0.666656H30.75C32.1307 0.666656 33.25 1.78594 33.25 3.16666V25.6667C33.25 27.0474 32.1307 28.1667 30.75 28.1667H3.25C1.86929 28.1667 0.75 27.0474 0.75 25.6667V3.16666ZM30.75 3.16666H3.25V25.6667H30.75V3.16666Z" fill="#9CAAB7"/>
    <path fill-rule="evenodd" clip-rule="evenodd" d="M9.79327 10.0236C10.0966 9.89798 10.4217 9.83331 10.75 9.83331C11.0783 9.83331 11.4034 9.89798 11.7067 10.0236C12.01 10.1493 12.2856 10.3334 12.5177 10.5655L19.5 17.5478L22.7322 14.3155C22.9644 14.0834 23.24 13.8992 23.5433 13.7736C23.8466 13.648 24.1717 13.5833 24.5 13.5833C24.8283 13.5833 25.1534 13.648 25.4567 13.7736C25.76 13.8992 26.0356 14.0834 26.2677 14.3155L32.8839 20.9317C33.1183 21.1661 33.25 21.484 33.25 21.8156V25.5655C33.25 26.2559 32.6903 26.8155 32 26.8155H2C1.30964 26.8155 0.75 26.2559 0.75 25.5655V19.3155C0.75 18.984 0.881696 18.6661 1.11612 18.4316L8.98221 10.5655C9.21435 10.3334 9.48995 10.1493 9.79327 10.0236ZM3.25 19.8333V26.1354H30.75V22.3333L24.5 16.0833L21.2677 19.3155C21.0356 19.5477 20.76 19.7318 20.4567 19.8575C20.1534 19.9831 19.8283 20.0478 19.5 20.0478C19.1717 20.0478 18.8466 19.9831 18.5433 19.8575C18.24 19.7318 17.9644 19.5477 17.7322 19.3155L10.75 12.3333L3.25 19.8333Z" fill="#9CAAB7"/>
    <path d="M21.375 11.5C22.4105 11.5 23.25 10.6605 23.25 9.625C23.25 8.58947 22.4105 7.75 21.375 7.75C20.3395 7.75 19.5 8.58947 19.5 9.625C19.5 10.6605 20.3395 11.5 21.375 11.5Z" fill="#9CAAB7"/>
</svg>
