<svg width="24" height="24" viewBox="0 0 24 24" fill="none" xmlns="http://www.w3.org/2000/svg">
    <defs xmlns="http://www.w3.org/2000/svg"><g id="s"><g id="c"><path id="t" d="M0,0v1h0.5z" transform="translate(0,-1)rotate(18)"/><use xmlns:xlink="http://www.w3.org/1999/xlink" xlink:href="#t" transform="scale(-1,1)"/></g><g id="a"><use xmlns:xlink="http://www.w3.org/1999/xlink" xlink:href="#c" transform="rotate(72)"/><use xmlns:xlink="http://www.w3.org/1999/xlink" xlink:href="#c" transform="rotate(144)"/></g><use xmlns:xlink="http://www.w3.org/1999/xlink" xlink:href="#a" transform="scale(-1,1)"/></g></defs>
    <path d="M24 17.9997C24 19.4723 22.806 20.6663 21.3333 20.6663H2.66667C1.194 20.6663 0 19.4723 0 17.9997V5.99967C0 4.52701 1.194 3.33301 2.66667 3.33301H21.3333C22.806 3.33301 24 4.52701 24 5.99967V17.9997Z" fill="#039"/>
    <g xmlns="http://www.w3.org/2000/svg" fill="#fc0" transform="scale(0.9)translate(13.5,13.5)"><use xmlns:xlink="http://www.w3.org/1999/xlink" xlink:href="#s" y="-6"/><use xmlns:xlink="http://www.w3.org/1999/xlink" xlink:href="#s" y="6"/><g id="l"><use xmlns:xlink="http://www.w3.org/1999/xlink" xlink:href="#s" x="-6"/><use xmlns:xlink="http://www.w3.org/1999/xlink" xlink:href="#s" transform="rotate(150)translate(0,6)rotate(66)"/><use xmlns:xlink="http://www.w3.org/1999/xlink" xlink:href="#s" transform="rotate(120)translate(0,6)rotate(24)"/><use xmlns:xlink="http://www.w3.org/1999/xlink" xlink:href="#s" transform="rotate(60)translate(0,6)rotate(12)"/><use xmlns:xlink="http://www.w3.org/1999/xlink" xlink:href="#s" transform="rotate(30)translate(0,6)rotate(42)"/></g><use xmlns:xlink="http://www.w3.org/1999/xlink" xlink:href="#l" transform="scale(-1,1)"/></g>
</svg>
