<svg width="24" height="24" viewBox="0 0 24 24" fill="none" xmlns="http://www.w3.org/2000/svg">
    <path d="M0 6.03901V8.66634H3.752L0 6.03901ZM3.10933 20.6663H8.66667V16.775L3.10933 20.6663ZM15.3333 16.7757V20.6663H20.89L15.3333 16.7757ZM0 15.333V17.9603L3.75333 15.333H0ZM20.8913 3.33301H15.3333V7.22434L20.8913 3.33301ZM24 17.961V15.333H20.246L24 17.961ZM24 8.66634V6.03901L20.2473 8.66634H24ZM8.66667 3.33301H3.10933L8.66667 7.22434V3.33301Z" fill="#00247D"/>
    <path d="M16.7598 15.3335L23.2345 19.8675C23.5485 19.5482 23.7732 19.1462 23.8945 18.7015L19.0845 15.3335H16.7598ZM8.66649 15.3335H7.23916L0.765159 19.8668C1.11249 20.2202 1.55783 20.4728 2.05716 20.5902L8.66649 15.9622V15.3335ZM15.3332 8.66682H16.7605L23.2345 4.13349C22.8872 3.78016 22.4425 3.52749 21.9432 3.41016L15.3332 8.03816V8.66682ZM7.23916 8.66682L0.765159 4.13349C0.451159 4.45349 0.226492 4.85482 0.104492 5.29949L4.91449 8.66682H7.23916Z" fill="#CF1B2B"/>
    <path d="M24 13.9997H14V20.6663H15.3333V16.7757L20.89 20.6663H21.3333C22.078 20.6663 22.7507 20.359 23.2347 19.867L16.76 15.333H19.0847L23.8947 18.701C23.9567 18.4763 24 18.2437 24 17.9997V17.961L20.246 15.333H24V13.9997ZM0 13.9997V15.333H3.75333L0 17.9603V17.9997C0 18.727 0.292667 19.385 0.765333 19.8663L7.23933 15.333H8.66667V15.9617L2.05733 20.589C2.25333 20.6357 2.456 20.6663 2.66667 20.6663H3.10933L8.66667 16.775V20.6663H10V13.9997H0ZM24 5.99967C24 5.27234 23.7073 4.61434 23.2347 4.13301L16.7607 8.66634H15.3333V8.03767L21.9433 3.40967C21.7467 3.36367 21.544 3.33301 21.3333 3.33301H20.8913L15.3333 7.22434V3.33301H14V9.99967H24V8.66634H20.2473L24 6.03901V5.99967ZM8.66667 3.33301V7.22434L3.10933 3.33301H2.66667C1.92133 3.33301 1.24933 3.64034 0.765333 4.13301L7.23933 8.66634H4.91467L0.104667 5.29901C0.0433333 5.52367 0 5.75567 0 5.99967V6.03901L3.752 8.66634H0V9.99967H10V3.33301H8.66667Z" fill="#EEEEEE"/>
    <path d="M14 9.99967V3.33301H10V9.99967H0V13.9997H10V20.6663H14V13.9997H24V9.99967H14Z" fill="#CF1B2B"/>
</svg>
