<svg width="24" height="24" viewBox="0 0 24 24" fill="none" xmlns="http://www.w3.org/2000/svg">
    <path fill-rule="evenodd" clip-rule="evenodd" d="M8.81047 22.0498C8.96057 22.125 9.11066 22.125 9.26076 22.125C9.29828 22.125 9.33581 22.1062 9.37333 22.0874C9.41085 22.0686 9.44838 22.0498 9.4859 22.0498C9.78609 21.9747 10.0112 21.8995 10.1613 21.7492L11.7373 20.5466H12.2627L13.8387 21.7492C14.0638 21.8995 14.289 21.9747 14.5141 22.0498C14.7392 22.0498 14.9644 22.0498 15.1895 21.9747C15.7899 21.8243 16.3903 21.5989 16.9156 21.2982C17.1408 21.223 17.2909 21.0727 17.441 20.8472C17.466 20.7721 17.4993 20.6969 17.5327 20.6217C17.5994 20.4714 17.6661 20.3211 17.6661 20.1708L17.9663 18.2165L18.1164 18.0662L18.2665 17.9159L20.2177 17.6152C20.4429 17.6152 20.7431 17.5401 20.8932 17.3897C21.0432 17.2394 21.1933 17.0891 21.3434 16.8636C21.3923 16.7494 21.4447 16.6317 21.4983 16.5112C21.6918 16.0765 21.9013 15.6057 22.0189 15.1348C22.0939 14.9093 22.169 14.6839 22.0939 14.4584C22.0189 14.2329 21.9438 14.0074 21.7937 13.7819L20.593 12.2035V11.978V11.7525L21.7937 10.1741C21.9438 9.94858 22.0189 9.72309 22.0939 9.4976C22.0939 9.27211 22.0939 9.04663 22.0189 8.82114C21.8688 8.21983 21.6436 7.61853 21.3434 7.09239C21.2684 6.8669 21.1183 6.71657 20.8932 6.56624C20.8181 6.54119 20.7431 6.50778 20.668 6.47438C20.5179 6.40757 20.3678 6.34075 20.2177 6.34075L18.2665 6.0401L18.1164 5.88978C18.1164 5.84332 18.0877 5.82558 18.0481 5.80106C18.0236 5.7859 17.995 5.76816 17.9663 5.73945L17.6661 3.78521C17.6661 3.55972 17.5911 3.33423 17.441 3.10874C17.4045 3.07227 17.3681 3.03137 17.3306 2.98926C17.2136 2.85784 17.0861 2.71469 16.9156 2.65776C16.8016 2.60884 16.6841 2.55637 16.5638 2.50267C16.1297 2.30888 15.6596 2.099 15.1895 1.9813C14.9644 1.90613 14.7392 1.83097 14.5141 1.90613L14.5141 1.90613C14.289 1.9813 14.0638 2.05646 13.8387 2.20679L12.2627 3.4094H11.7373L10.1613 2.20679C9.93619 2.05646 9.71105 1.9813 9.4859 1.90613C9.26076 1.90613 9.03562 1.90613 8.81047 1.9813C8.21009 2.13162 7.60971 2.35711 7.08438 2.65776C6.85923 2.73293 6.70914 2.88325 6.55904 3.03358C6.53403 3.10874 6.50067 3.18391 6.46732 3.25907C6.40061 3.40939 6.3339 3.55972 6.3339 3.71005L6.03371 5.66429C5.95866 5.73945 5.88361 5.81461 5.88361 5.88978C5.80857 5.88978 5.73352 5.96494 5.73352 6.0401L3.78228 6.34075C3.55713 6.34075 3.33199 6.41592 3.10685 6.56624C2.88171 6.71657 2.73161 6.8669 2.65656 7.09239C2.60771 7.20655 2.55532 7.32426 2.5017 7.44474C2.30821 7.87948 2.09866 8.35031 1.98113 8.82114C1.90609 9.04663 1.83104 9.27211 1.90609 9.4976C1.98113 9.79826 2.05618 9.94858 2.20628 10.1741L3.40704 11.8277V12.0531V12.2786L2.20628 13.8571C2.05618 14.0826 1.98113 14.308 1.90609 14.5335L1.90609 14.5335C1.90609 14.759 1.90609 14.9845 1.98113 15.21C2.13123 15.8113 2.35637 16.4126 2.65656 16.9387C2.73161 17.1642 2.88171 17.3146 3.10685 17.4649C3.1819 17.4899 3.25694 17.5233 3.33199 17.5568C3.48209 17.6236 3.63218 17.6904 3.78228 17.6904L5.73352 17.991L5.88361 18.1414L6.03371 18.2917L6.3339 20.2459C6.3339 20.4714 6.40895 20.6969 6.55904 20.9224C6.59546 20.9589 6.63188 20.9998 6.66937 21.0419C6.78639 21.1733 6.91386 21.3164 7.08438 21.3734C7.19837 21.4223 7.3159 21.4748 7.4362 21.5285C7.87027 21.7223 8.34037 21.9321 8.81047 22.0498ZM8.11971 3.85269C8.50094 3.68337 8.85889 3.52439 9.26076 3.4094L10.9118 4.76233C11.0619 4.83749 11.287 4.91266 11.4371 4.91266H12.3377C12.5629 4.91266 12.713 4.83749 12.863 4.76233L14.6642 3.4094C15.1895 3.55972 15.7149 3.78521 16.1651 4.0107L16.4653 6.19043C16.4653 6.34075 16.5404 6.49108 16.6905 6.64141L16.9907 6.94206L17.2909 7.24271C17.441 7.39304 17.5911 7.4682 17.7411 7.4682L20.0676 7.61853C20.1205 7.74219 20.1735 7.8617 20.2254 7.97901C20.3945 8.36081 20.5532 8.71931 20.668 9.12179L19.3172 10.9257C19.2421 11.076 19.1671 11.3015 19.1671 11.4518V11.9028V12.3538C19.1671 12.5793 19.2421 12.7296 19.3172 12.8799L20.668 14.6839C20.5179 15.21 20.2928 15.7361 20.0676 16.1871L17.8912 16.4878C17.7411 16.4878 17.5911 16.5629 17.441 16.7133L17.1408 17.0139L16.8406 17.3146C16.6905 17.4649 16.6154 17.6152 16.6154 17.7655L16.3152 19.9453C16.1918 19.9983 16.0725 20.0513 15.9554 20.1033C15.5741 20.2726 15.2162 20.4316 14.8143 20.5466L13.0131 19.1936C12.863 19.1185 12.6379 19.0433 12.4878 19.0433H11.5872C11.3621 19.0433 11.212 19.1185 11.0619 19.1936L9.26076 20.5466C8.73543 20.3962 8.21009 20.1708 7.75981 19.9453L7.45961 17.7655C7.45961 17.6152 7.38457 17.4649 7.23447 17.3146L6.93428 17.0139L6.63409 16.7133C6.55904 16.6381 6.3339 16.4878 6.1838 16.4878L4.00742 16.3374C3.95451 16.2138 3.90159 16.0943 3.84966 15.977C3.6806 15.5952 3.52186 15.2367 3.40704 14.8342L4.7579 13.0303C4.83295 12.8799 4.90799 12.6545 4.90799 12.5041V12.0531V11.6022C4.90799 11.3767 4.83295 11.2264 4.7579 11.076L3.40704 9.27211C3.55713 8.74597 3.78228 8.21983 4.00742 7.76885L6.1838 7.4682C6.3339 7.4682 6.48399 7.39304 6.63409 7.24271C6.65681 7.21995 6.67954 7.19031 6.70434 7.15794C6.76146 7.08341 6.82963 6.99447 6.93428 6.94206C6.98661 6.83725 7.07541 6.76898 7.14983 6.71177C7.18215 6.68692 7.21175 6.66416 7.23447 6.64141C7.38457 6.49108 7.45961 6.34075 7.45961 6.19043L7.75981 4.0107C7.88327 3.95771 8.00259 3.90471 8.11971 3.85269ZM6.70898 11.9777C6.70898 14.9091 9.03546 17.2391 11.9623 17.2391C14.8892 17.2391 17.2157 14.9091 17.2157 11.9777C17.2157 9.04636 14.8892 6.71631 11.9623 6.71631C9.03546 6.71631 6.70898 9.04636 6.70898 11.9777ZM8.20994 11.9777C8.20994 9.87316 9.86099 8.21957 11.9623 8.21957C14.0637 8.21957 15.7147 9.87316 15.7147 11.9777C15.7147 14.0823 14.0637 15.7359 11.9623 15.7359C9.86099 15.7359 8.20994 14.0823 8.20994 11.9777Z" fill="#009CF0"/>
</svg>
