<svg width="24" height="24" viewBox="0 0 24 24" fill="none" xmlns="http://www.w3.org/2000/svg">
    <circle cx="12" cy="12" r="12" fill="#040B1D"/>
    <path d="M19.6575 7.2538C19.3987 7.04973 19.0901 6.771 18.5277 6.70132C18.0001 6.63164 17.4625 6.98503 17.0992 7.21896C16.7359 7.45289 16.049 8.13976 15.7653 8.3488C15.4816 8.55785 14.7549 8.75197 13.5852 9.45376C12.4156 10.1556 7.82651 13.1021 7.82651 13.1021L9.02106 13.1171L3.69536 15.8595H4.22793L3.46143 16.4419C3.46143 16.4419 4.13834 16.6211 4.70575 16.2627V16.427C4.70575 16.427 11.0468 13.9284 12.2712 14.5754L11.5246 14.7944C11.5893 14.7944 12.7938 14.874 12.7938 14.874C12.8231 15.1235 12.9069 15.3634 13.0394 15.5767C13.1719 15.7901 13.3497 15.9716 13.5603 16.1084C14.287 16.5862 14.302 16.85 14.302 16.85C14.302 16.85 13.9237 17.0043 13.9237 17.1984C13.9237 17.1984 14.4811 17.0292 14.9988 17.0441C15.3273 17.0566 15.6532 17.1084 15.9694 17.1984C15.9694 17.1984 15.9295 16.9894 15.4268 16.85C14.9241 16.7107 14.4264 16.1632 14.1825 15.8645C14.0331 15.6744 13.9358 15.4487 13.9 15.2096C13.8642 14.9705 13.8912 14.7262 13.9784 14.5007C14.1526 14.0478 14.7599 13.7989 16.0142 13.1519C17.4924 12.3854 17.8309 11.818 18.0399 11.375C18.249 10.932 18.5575 10.051 18.7318 9.63792C18.9508 9.10535 19.2195 8.82165 19.4435 8.65242C19.6675 8.48319 20.6629 8.10989 20.6629 8.10989C20.6629 8.10989 19.9014 7.44791 19.6575 7.2538Z" fill="white"/>
</svg>
