<svg width="24" height="24" viewBox="0 0 24 24" fill="none" xmlns="http://www.w3.org/2000/svg">
    <path fill-rule="evenodd" clip-rule="evenodd" d="M5.99944 5.03613C5.7437 5.03613 5.49843 5.13773 5.31759 5.31857C5.13675 5.4994 5.03516 5.74467 5.03516 6.00042V18.0004C5.03516 18.2562 5.13675 18.5014 5.31759 18.6823C5.49843 18.8631 5.7437 18.9647 5.99944 18.9647H9.42801C9.84223 18.9647 10.178 19.3005 10.178 19.7147C10.178 20.1289 9.84223 20.4647 9.42801 20.4647H5.99944C5.34587 20.4647 4.71907 20.2051 4.25693 19.7429C3.79479 19.2808 3.53516 18.654 3.53516 18.0004V6.00042C3.53516 5.34685 3.79479 4.72005 4.25693 4.25791C4.71907 3.79576 5.34587 3.53613 5.99944 3.53613H9.42801C9.84223 3.53613 10.178 3.87192 10.178 4.28613C10.178 4.70035 9.84223 5.03613 9.42801 5.03613H5.99944ZM14.8977 7.18437C15.1906 6.89148 15.6655 6.89148 15.9583 7.18437L20.2441 11.4701C20.537 11.763 20.537 12.2379 20.2441 12.5307L15.9583 16.8165C15.6655 17.1094 15.1906 17.1094 14.8977 16.8165C14.6048 16.5236 14.6048 16.0487 14.8977 15.7558L17.9031 12.7504H9.42801C9.0138 12.7504 8.67801 12.4146 8.67801 12.0004C8.67801 11.5862 9.0138 11.2504 9.42801 11.2504H17.9031L14.8977 8.24503C14.6048 7.95214 14.6048 7.47727 14.8977 7.18437Z" fill="#091941"/>
</svg>
