<svg width="32" height="32" viewBox="0 0 32 32" fill="none" xmlns="http://www.w3.org/2000/svg">
<circle cx="16" cy="16" r="16" fill="black"/>
<path d="M26.21 9.67214C25.865 9.40005 25.4535 9.02841 24.7036 8.9355C24.0001 8.84259 23.2834 9.31377 22.7989 9.62569C22.3145 9.9376 21.3987 10.8534 21.0204 11.1321C20.6421 11.4109 19.6732 11.6697 18.1136 12.6054C16.5541 13.5412 10.4353 17.4699 10.4353 17.4699L12.0281 17.4898L4.92714 21.1465H5.63724L4.61523 21.9229C4.61523 21.9229 5.51778 22.1618 6.27433 21.684V21.903C6.27433 21.903 14.7291 18.5715 16.3616 19.4343L15.3662 19.7263C15.4525 19.7263 17.0585 19.8325 17.0585 19.8325C17.0974 20.165 17.2092 20.4849 17.3859 20.7694C17.5625 21.0538 17.7997 21.2959 18.0805 21.4783C19.0494 22.1154 19.0693 22.4671 19.0693 22.4671C19.0693 22.4671 18.5649 22.6728 18.5649 22.9317C18.5649 22.9317 19.3082 22.706 19.9984 22.7259C20.4364 22.7425 20.8709 22.8116 21.2925 22.9317C21.2925 22.9317 21.2394 22.6529 20.5691 22.4671C19.8988 22.2813 19.2352 21.5513 18.91 21.1531C18.7108 20.8996 18.581 20.5987 18.5333 20.2799C18.4856 19.9611 18.5217 19.6354 18.6379 19.3347C18.8702 18.7308 19.6798 18.399 21.3522 17.5363C23.3232 16.5143 23.7745 15.7577 24.0532 15.1671C24.3319 14.5764 24.7434 13.4018 24.9757 12.851C25.2677 12.1409 25.626 11.7626 25.9247 11.537C26.2233 11.3113 27.5506 10.8136 27.5506 10.8136C27.5506 10.8136 26.5352 9.93096 26.21 9.67214Z" fill="white"/>
</svg>
