<svg width="32" height="32" viewBox="0 0 32 32" fill="none" xmlns="http://www.w3.org/2000/svg">
    <path d="M7 18C6.45185 18 5.98148 17.8037 5.58889 17.4111C5.1963 17.0185 5 16.5481 5 16C5 15.4519 5.1963 14.9815 5.58889 14.5889C5.98148 14.1963 6.45185 14 7 14C7.54815 14 8.01852 14.1963 8.41111 14.5889C8.8037 14.9815 9 15.4519 9 16C9 16.363 8.90741 16.6963 8.72222 17C8.54444 17.3037 8.3037 17.5481 8 17.7333C7.7037 17.9111 7.37037 18 7 18ZM15.5333 18C14.9852 18 14.5148 17.8037 14.1222 17.4111C13.7296 17.0185 13.5333 16.5481 13.5333 16C13.5333 15.4519 13.7296 14.9815 14.1222 14.5889C14.5148 14.1963 14.9852 14 15.5333 14C16.0815 14 16.5519 14.1963 16.9444 14.5889C17.337 14.9815 17.5333 15.4519 17.5333 16C17.5333 16.363 17.4407 16.6963 17.2556 17C17.0778 17.3037 16.837 17.5481 16.5333 17.7333C16.237 17.9111 15.9037 18 15.5333 18ZM24.0667 18C23.5185 18 23.0481 17.8037 22.6556 17.4111C22.263 17.0185 22.0667 16.5481 22.0667 16C22.0667 15.4519 22.263 14.9815 22.6556 14.5889C23.0481 14.1963 23.5185 14 24.0667 14C24.6148 14 25.0852 14.1963 25.4778 14.5889C25.8704 14.9815 26.0667 15.4519 26.0667 16C26.0667 16.363 25.9741 16.6963 25.7889 17C25.6111 17.3037 25.3704 17.5481 25.0667 17.7333C24.7704 17.9111 24.437 18 24.0667 18Z" fill="#0E2665"/>
</svg>
