<svg width="64" height="64" viewBox="0 0 64 64" fill="none" xmlns="http://www.w3.org/2000/svg">
    <circle cx="32" cy="32" r="32" fill="#F5F6F7"/>
    <path fill-rule="evenodd" clip-rule="evenodd" d="M15.75 21.1667C15.75 19.786 16.8693 18.6667 18.25 18.6667H45.75C47.1307 18.6667 48.25 19.786 48.25 21.1667V43.6667C48.25 45.0474 47.1307 46.1667 45.75 46.1667H18.25C16.8693 46.1667 15.75 45.0474 15.75 43.6667V21.1667ZM45.75 21.1667H18.25V43.6667H45.75V21.1667Z" fill="#9CAAB7"/>
    <path fill-rule="evenodd" clip-rule="evenodd" d="M24.7933 28.0237C25.0966 27.898 25.4217 27.8334 25.75 27.8334C26.0783 27.8334 26.4034 27.898 26.7067 28.0237C27.01 28.1493 27.2856 28.3335 27.5177 28.5656L34.5 35.5478L37.7322 32.3156C37.9644 32.0835 38.24 31.8993 38.5433 31.7737C38.8466 31.648 39.1717 31.5834 39.5 31.5834C39.8283 31.5834 40.1534 31.648 40.4567 31.7737C40.76 31.8993 41.0356 32.0835 41.2677 32.3156L47.8839 38.9317C48.1183 39.1661 48.25 39.4841 48.25 39.8156V43.5656C48.25 44.2559 47.6903 44.8156 47 44.8156H17C16.3096 44.8156 15.75 44.2559 15.75 43.5656V37.3156C15.75 36.9841 15.8817 36.6661 16.1161 36.4317L23.9822 28.5656C24.2144 28.3335 24.49 28.1493 24.7933 28.0237ZM18.25 37.8334V44.1355H45.75V40.3334L39.5 34.0834L36.2677 37.3156C36.0356 37.5478 35.76 37.7319 35.4567 37.8575C35.1534 37.9832 34.8283 38.0478 34.5 38.0478C34.1717 38.0478 33.8466 37.9832 33.5433 37.8575C33.24 37.7319 32.9644 37.5478 32.7322 37.3156L25.75 30.3334L18.25 37.8334Z" fill="#9CAAB7"/>
    <path d="M36.375 29.5C37.4105 29.5 38.25 28.6605 38.25 27.625C38.25 26.5895 37.4105 25.75 36.375 25.75C35.3395 25.75 34.5 26.5895 34.5 27.625C34.5 28.6605 35.3395 29.5 36.375 29.5Z" fill="#9CAAB7"/>
</svg>