<svg width="80" height="74" viewBox="0 0 80 74" fill="none" xmlns="http://www.w3.org/2000/svg">
    <path fill-rule="evenodd" clip-rule="evenodd" d="M70.8333 74H9.16667C4.11 74 0 69.8526 0 64.75V14.5V9.25C0 4.14736 4.11 0 9.16667 0H70.8333C75.89 0 80 4.14736 80 9.25V14.5V64.75C80 69.8526 75.89 74 70.8333 74ZM5 9.25V12H75V9.25C75 6.93245 73.13 5.04545 70.8333 5.04545H9.16667C6.87 5.04545 5 6.93245 5 9.25ZM75 17H5V64.75C5 67.0675 6.87 68.9545 9.16667 68.9545H70.8333C73.13 68.9545 75 67.0675 75 64.75V17ZM30.6803 40.571C30.6803 34.7421 35.4622 30 41.3402 30C47.218 30 52.0002 34.7419 52 40.5708C52 46.3997 47.218 51.1418 41.3402 51.1418C38.9912 51.1418 36.8182 50.3826 35.0544 49.1011L29.9217 53.4369C29.4739 53.8149 28.9255 54 28.3802 54C27.7071 54 27.0385 53.7184 26.568 53.1709C25.7162 52.1792 25.8361 50.6902 26.8362 49.8453L31.9342 45.5388C31.1349 44.0567 30.6803 42.3658 30.6803 40.571ZM35.4381 40.5707C35.4381 43.7981 38.0856 46.4235 41.3402 46.4235C44.5946 46.4235 47.2421 43.7981 47.2421 40.5707C47.2421 37.3433 44.5946 34.7179 41.3402 34.7179C38.0856 34.7179 35.4381 37.3433 35.4381 40.5707Z" fill="#C9D0D7"/>
</svg>
