<svg width="80" height="80" viewBox="0 0 80 80" fill="none" xmlns="http://www.w3.org/2000/svg">
    <ellipse cx="39.5" cy="78.5" rx="31.5" ry="1.5" fill="#006499"/>
    <path fill-rule="evenodd" clip-rule="evenodd" d="M53.9709 0.500582C54.2468 0.487383 54.4811 0.700284 54.4943 0.976111C54.6083 3.35856 53.0173 5.748 50.6941 7.87923C51.6566 8.2016 52.4588 8.63903 52.9902 9.22412C53.3781 9.65114 53.6234 10.1595 53.6699 10.7441C53.7159 11.3224 53.564 11.9317 53.2356 12.5634C52.5861 13.8124 51.1978 15.2414 48.9577 16.8798C46.539 18.6487 44.4061 19.9686 42.5471 20.9306C42.8132 21.2608 42.9758 21.6226 43.0368 22.0068C43.1082 22.4565 43.0349 22.9025 42.8758 23.3233C42.5626 24.1514 41.8924 24.9464 41.1419 25.6335C40.3826 26.3286 39.4984 26.9517 38.6985 27.4293C38.4614 27.5709 38.1544 27.4934 38.0129 27.2563C37.8713 27.0192 37.9488 26.7123 38.1858 26.5707C38.9412 26.1197 39.7678 25.5357 40.4666 24.8959C41.1741 24.2482 41.7093 23.5807 41.9404 22.9696C42.0535 22.6707 42.0871 22.4029 42.0492 22.1635C42.0119 21.9287 41.9006 21.6874 41.6674 21.4431C41.6514 21.4264 41.6349 21.4096 41.6178 21.3929C40.4208 21.9639 39.3487 22.3775 38.3981 22.6621C37.1015 23.0502 36.018 23.2021 35.1437 23.1786C34.2754 23.1552 33.5786 22.9572 33.0948 22.6077C32.5965 22.2478 32.3307 21.7247 32.3913 21.1512C32.4494 20.6004 32.7974 20.1042 33.3065 19.7297C34.3271 18.979 36.126 18.6007 38.5398 19.0811C39.9483 19.3614 41.002 19.7422 41.7383 20.2205C43.6183 19.2764 45.823 17.9336 48.3673 16.0726C50.5708 14.461 51.8071 13.143 52.3483 12.102C52.6152 11.5887 52.7004 11.1673 52.673 10.8234C52.6462 10.4858 52.5079 10.1804 52.25 9.89645C51.7893 9.38928 50.9589 8.96574 49.8029 8.6555C47.1893 10.8225 43.7747 12.7751 40.3609 14.2371C36.8058 15.7596 33.2042 16.7703 30.4637 16.9186C29.1005 16.9924 27.8882 16.8567 26.9968 16.4093C26.5437 16.1819 26.1634 15.8686 25.8981 15.4539C25.6318 15.0377 25.5 14.5483 25.5 14C25.5 12.8284 26.2945 11.8373 27.4109 11.0345C28.5415 10.2214 30.1066 9.52253 31.8873 8.94894C35.4538 7.80008 40.0036 7.11654 43.9918 7.07741C45.9865 7.05785 47.8589 7.19921 49.4081 7.5323C49.4543 7.54223 49.5003 7.55236 49.5461 7.56267C52.0917 5.35996 53.5938 3.08019 53.4954 1.02391C53.4822 0.748084 53.6951 0.513782 53.9709 0.500582ZM48.5433 8.38465C47.2197 8.1603 45.6674 8.06102 44.0016 8.07737C40.1024 8.11562 35.6538 8.78623 32.1939 9.90077C30.4613 10.4589 29.0061 11.119 27.9947 11.8463C26.9691 12.5839 26.5 13.3145 26.5 14C26.5 14.3835 26.5904 14.6804 26.7405 14.915C26.8915 15.1511 27.1217 15.3531 27.4454 15.5156C28.1076 15.848 29.1136 15.9902 30.4097 15.9201C32.9877 15.7806 36.468 14.8165 39.9672 13.3179C43.0501 11.9976 46.1108 10.2782 48.5433 8.38465ZM40.6265 20.7503C40.0729 20.4945 39.3285 20.2577 38.3446 20.0618C36.0925 19.6136 34.6142 20.0092 33.899 20.5352C33.5403 20.7991 33.4057 21.067 33.3857 21.2562C33.3682 21.4226 33.4287 21.6154 33.6803 21.7971C33.9463 21.9892 34.4229 22.1588 35.1706 22.179C35.9124 22.1989 36.8875 22.0704 38.1113 21.7041C38.8605 21.4798 39.6982 21.1678 40.6265 20.7503Z" fill="#009CF0"/>
    <path fill-rule="evenodd" clip-rule="evenodd" d="M63.6115 22.971L62.5006 21L61.3897 22.971L59.1719 23.4184L60.7031 25.084L60.4433 27.3316L62.5006 26.39L64.5578 27.3316L64.2981 25.084L65.8293 23.4184L63.6115 22.971ZM63.8924 24.0478L62.9651 23.8607L62.5006 23.0366L62.0361 23.8607L61.1088 24.0478L61.749 24.7442L61.6404 25.6839L62.5006 25.2902L63.3607 25.6839L63.2521 24.7442L63.8924 24.0478Z" fill="#009CF0"/>
    <path fill-rule="evenodd" clip-rule="evenodd" d="M17.3246 7.54628L17.0965 4.21958L14.3686 6.13728L11.1343 5.32619L12.1152 8.51317L10.3443 11.3386L13.6784 11.3905L15.8183 13.9478L16.898 10.793L19.9914 9.54806L17.3246 7.54628ZM17.9722 9.28274L16.3583 8.07129L16.2202 6.058L14.5693 7.21857L12.6119 6.72771L13.2056 8.65644L12.1338 10.3664L14.1516 10.3978L15.4467 11.9455L16.1001 10.0362L17.9722 9.28274Z" fill="#009CF0"/>
    <path fill-rule="evenodd" clip-rule="evenodd" d="M62 11C62.5523 11 63 10.5523 63 10C63 9.44772 62.5523 9 62 9C61.4477 9 61 9.44772 61 10C61 10.5523 61.4477 11 62 11ZM62 12C63.1046 12 64 11.1046 64 10C64 8.89543 63.1046 8 62 8C60.8954 8 60 8.89543 60 10C60 11.1046 60.8954 12 62 12Z" fill="#009CF0"/>
    <path fill-rule="evenodd" clip-rule="evenodd" d="M21.5 24C21.7761 24 22 23.7761 22 23.5C22 23.2239 21.7761 23 21.5 23C21.2239 23 21 23.2239 21 23.5C21 23.7761 21.2239 24 21.5 24ZM21.5 25C22.3284 25 23 24.3284 23 23.5C23 22.6716 22.3284 22 21.5 22C20.6716 22 20 22.6716 20 23.5C20 24.3284 20.6716 25 21.5 25Z" fill="#009CF0"/>
    <path d="M32 5C32 5.55228 31.5523 6 31 6C30.4477 6 30 5.55228 30 5C30 4.44772 30.4477 4 31 4C31.5523 4 32 4.44772 32 5Z" fill="#009CF0"/>
    <path d="M65.3889 32H21L22.7407 79H68L65.3889 32Z" fill="#15ADFF"/>
    <path d="M34 32H61.125L62 79H34.875L34 32Z" fill="#009CF0"/>
    <path d="M13.7407 32H59L57.2593 79H12L13.7407 32Z" fill="#66CAFF"/>
    <rect x="27" y="36" width="18" height="4" rx="2" fill="#006499"/>
    <rect x="36" y="36" width="9" height="4" rx="2" fill="white"/>
    <circle cx="35" cy="57" r="7" fill="#C7EBFF"/>
</svg>
