<svg width="80" height="81" viewBox="0 0 80 81" fill="none" xmlns="http://www.w3.org/2000/svg">
    <g clip-path="url(#clip0_712_177691)">
        <ellipse cx="39.5" cy="79" rx="31.5" ry="1.5" fill="#006499"/>
        <rect x="8" y="31.5" width="64" height="48" rx="8" fill="#66CAFF"/>
        <mask id="mask0_712_177691" style="mask-type:alpha" maskUnits="userSpaceOnUse" x="8" y="31" width="64" height="49">
            <rect x="8" y="31.5" width="64" height="48" rx="8" fill="url(#paint0_linear_712_177691)"/>
        </mask>
        <g mask="url(#mask0_712_177691)">
            <path fill-rule="evenodd" clip-rule="evenodd" d="M59.1035 47.6115C57.5376 45.0996 53.8805 45.0995 52.3146 47.6115L38.5856 69.6351L30.9347 57.9461C29.3556 55.5336 25.8201 55.5336 24.241 57.9461L10.1333 79.4996L32.4363 79.4995L45.0424 79.4996L78.9818 79.4995L59.1035 47.6115Z" fill="#15ADFF"/>
        </g>
        <circle cx="28" cy="44.5" r="7" fill="#C7EBFF"/>
        <path fill-rule="evenodd" clip-rule="evenodd" d="M53.9709 1.00058C54.2468 0.987383 54.4811 1.20028 54.4943 1.47611C54.6083 3.85856 53.0173 6.248 50.6941 8.37923C51.6566 8.7016 52.4588 9.13903 52.9902 9.72412C53.3781 10.1511 53.6234 10.6595 53.6699 11.2441C53.7159 11.8224 53.564 12.4317 53.2356 13.0634C52.5861 14.3124 51.1978 15.7414 48.9577 17.3798C46.539 19.1487 44.4061 20.4686 42.5471 21.4306C42.8132 21.7608 42.9758 22.1226 43.0368 22.5068C43.1082 22.9565 43.0349 23.4025 42.8758 23.8233C42.5626 24.6514 41.8924 25.4464 41.1419 26.1335C40.3826 26.8286 39.4984 27.4517 38.6985 27.9293C38.4614 28.0709 38.1544 27.9934 38.0129 27.7563C37.8713 27.5192 37.9488 27.2123 38.1858 27.0707C38.9412 26.6197 39.7678 26.0357 40.4666 25.3959C41.1741 24.7482 41.7093 24.0807 41.9404 23.4696C42.0535 23.1707 42.0871 22.9029 42.0492 22.6635C42.0119 22.4287 41.9006 22.1874 41.6674 21.9431C41.6514 21.9264 41.6349 21.9096 41.6178 21.8929C40.4208 22.4639 39.3487 22.8775 38.3981 23.1621C37.1015 23.5502 36.018 23.7021 35.1437 23.6786C34.2754 23.6552 33.5786 23.4572 33.0948 23.1077C32.5965 22.7478 32.3307 22.2247 32.3913 21.6512C32.4494 21.1004 32.7974 20.6042 33.3065 20.2297C34.3271 19.479 36.126 19.1007 38.5398 19.5811C39.9483 19.8614 41.002 20.2422 41.7383 20.7205C43.6183 19.7764 45.823 18.4336 48.3673 16.5726C50.5708 14.961 51.8071 13.643 52.3483 12.602C52.6152 12.0887 52.7004 11.6673 52.673 11.3234C52.6462 10.9858 52.5079 10.6804 52.25 10.3965C51.7893 9.88928 50.9589 9.46574 49.8029 9.1555C47.1893 11.3225 43.7747 13.2751 40.3609 14.7371C36.8058 16.2596 33.2042 17.2703 30.4637 17.4186C29.1005 17.4924 27.8882 17.3567 26.9968 16.9093C26.5437 16.6819 26.1634 16.3686 25.8981 15.9539C25.6318 15.5377 25.5 15.0483 25.5 14.5C25.5 13.3284 26.2945 12.3373 27.4109 11.5345C28.5415 10.7214 30.1066 10.0225 31.8873 9.44894C35.4538 8.30008 40.0036 7.61654 43.9918 7.57741C45.9865 7.55785 47.8589 7.69921 49.4081 8.0323C49.4543 8.04223 49.5003 8.05236 49.5461 8.06267C52.0917 5.85996 53.5938 3.58019 53.4954 1.52391C53.4822 1.24808 53.6951 1.01378 53.9709 1.00058ZM48.5433 8.88465C47.2197 8.6603 45.6674 8.56102 44.0016 8.57737C40.1024 8.61562 35.6538 9.28623 32.1939 10.4008C30.4613 10.9589 29.0061 11.619 27.9947 12.3463C26.9691 13.0839 26.5 13.8145 26.5 14.5C26.5 14.8835 26.5904 15.1804 26.7405 15.415C26.8915 15.6511 27.1217 15.8531 27.4454 16.0156C28.1076 16.348 29.1136 16.4902 30.4097 16.4201C32.9877 16.2806 36.468 15.3165 39.9672 13.8179C43.0501 12.4976 46.1108 10.7782 48.5433 8.88465ZM40.6265 21.2503C40.0729 20.9945 39.3285 20.7577 38.3446 20.5618C36.0925 20.1136 34.6142 20.5092 33.899 21.0352C33.5403 21.2991 33.4057 21.567 33.3857 21.7562C33.3682 21.9226 33.4287 22.1154 33.6803 22.2971C33.9463 22.4892 34.4229 22.6588 35.1706 22.679C35.9124 22.6989 36.8875 22.5704 38.1113 22.2041C38.8605 21.9798 39.6982 21.6678 40.6265 21.2503Z" fill="#009CF0"/>
        <path fill-rule="evenodd" clip-rule="evenodd" d="M63.611 23.471L62.5001 21.5L61.3892 23.471L59.1714 23.9184L60.7026 25.584L60.4428 27.8316L62.5001 26.89L64.5573 27.8316L64.2976 25.584L65.8288 23.9184L63.611 23.471ZM63.8919 24.5478L62.9646 24.3607L62.5001 23.5366L62.0356 24.3607L61.1083 24.5478L61.7485 25.2442L61.6399 26.1839L62.5001 25.7902L63.3603 26.1839L63.2516 25.2442L63.8919 24.5478Z" fill="#009CF0"/>
        <path fill-rule="evenodd" clip-rule="evenodd" d="M17.3236 8.04604L17.0956 4.71933L14.3677 6.63704L11.1333 5.82594L12.1142 9.01292L10.3433 11.8383L13.6774 11.8903L15.8173 14.4476L16.897 11.2927L19.9904 10.0478L17.3236 8.04604ZM17.9712 9.7825L16.3573 8.57104L16.2193 6.55775L14.5684 7.71833L12.611 7.22746L13.2046 9.15619L12.1329 10.8661L14.1506 10.8976L15.4457 12.4452L16.0991 10.5359L17.9712 9.7825Z" fill="#009CF0"/>
        <path fill-rule="evenodd" clip-rule="evenodd" d="M22 26.5C22.5523 26.5 23 26.0523 23 25.5C23 24.9477 22.5523 24.5 22 24.5C21.4477 24.5 21 24.9477 21 25.5C21 26.0523 21.4477 26.5 22 26.5ZM22 27.5C23.1046 27.5 24 26.6046 24 25.5C24 24.3954 23.1046 23.5 22 23.5C20.8954 23.5 20 24.3954 20 25.5C20 26.6046 20.8954 27.5 22 27.5Z" fill="#009CF0"/>
        <path fill-rule="evenodd" clip-rule="evenodd" d="M60.5 10.5C60.7761 10.5 61 10.2761 61 10C61 9.72386 60.7761 9.5 60.5 9.5C60.2239 9.5 60 9.72386 60 10C60 10.2761 60.2239 10.5 60.5 10.5ZM60.5 11.5C61.3284 11.5 62 10.8284 62 10C62 9.17157 61.3284 8.5 60.5 8.5C59.6716 8.5 59 9.17157 59 10C59 10.8284 59.6716 11.5 60.5 11.5Z" fill="#009CF0"/>
        <path d="M42 2.5C42 3.05228 41.5523 3.5 41 3.5C40.4477 3.5 40 3.05228 40 2.5C40 1.94772 40.4477 1.5 41 1.5C41.5523 1.5 42 1.94772 42 2.5Z" fill="#009CF0"/>
    </g>
    <defs>
        <linearGradient id="paint0_linear_712_177691" x1="7.99995" y1="55.5005" x2="71.9998" y2="55.5005" gradientUnits="userSpaceOnUse">
            <stop stop-color="#43DDFF"/>
            <stop offset="0.162859" stop-color="#36C7FF"/>
            <stop offset="0.360787" stop-color="#2AB4FF"/>
            <stop offset="0.569133" stop-color="#2AA6FF"/>
            <stop offset="0.746227" stop-color="#489CFF"/>
            <stop offset="0.938947" stop-color="#4E80FF"/>
        </linearGradient>
        <clipPath id="clip0_712_177691">
            <rect width="80" height="80" fill="white" transform="translate(0 0.5)"/>
        </clipPath>
    </defs>
</svg>
