<svg width="24" height="24" viewBox="0 0 24 24" fill="none" xmlns="http://www.w3.org/2000/svg">
    <g clip-path="url(#clip0_1491_133268)">
        <path fill-rule="evenodd" clip-rule="evenodd" d="M20.1189 11.7059C20.1112 9.84156 19.5641 8.18166 18.4769 6.71658L18.4764 6.7158C17.6145 5.54638 16.4525 4.70672 14.9796 4.19753C14.5289 4.0417 14.1941 3.62438 14.192 3.12494L14.1835 1.08701C14.1806 0.394368 14.8252 -0.162808 15.5274 0.0435094C20.4078 1.4776 23.9777 6.0003 24 11.3806L23.9939 12.6157C23.9739 17.996 20.4059 22.5202 15.5261 23.9564C14.8241 24.163 14.1793 23.6061 14.1818 22.9135L14.1894 20.8755C14.1913 20.3761 14.5259 19.9586 14.9766 19.8026C16.4493 19.2928 17.6109 18.4526 18.4723 17.2828L18.4729 17.282C19.5593 15.8165 20.1058 14.1563 20.1127 12.292L20.1189 11.7059ZM3.8811 11.706C3.88883 9.84162 4.43591 8.18166 5.52304 6.71664L5.52361 6.71586C6.3855 5.54641 7.54746 4.70676 9.0204 4.19756C9.47112 4.04173 9.80592 3.62442 9.80802 3.12497L9.81648 1.08704C9.81936 0.394404 9.17478 -0.162772 8.4726 0.0435454C3.59222 1.47763 0.0223154 6.00036 0 11.3806L0.00607632 12.6158C0.0261071 17.996 3.5941 22.5202 8.47392 23.9564C9.17592 24.163 9.82074 23.6061 9.81816 22.9135L9.8106 20.8756C9.80874 20.3761 9.47412 19.9586 9.0234 19.8026C7.5507 19.2928 6.3891 18.4526 5.5277 17.2828L5.52714 17.2821C4.44064 15.8165 3.89426 14.1564 3.88732 12.292L3.8811 11.706ZM12 7.63632C10.795 7.63632 9.81816 8.61318 9.81816 9.81816V14.1818C9.81816 15.3868 10.795 16.3636 12 16.3636C13.205 16.3636 14.1818 15.3868 14.1818 14.1818V9.81816C14.1818 8.61318 13.205 7.63632 12 7.63632Z" fill="#5942C8"/>
    </g>
    <defs>
        <clipPath id="clip0_1491_133268">
            <rect width="24" height="24" fill="white"/>
        </clipPath>
    </defs>
</svg>
