<svg width="24" height="24" viewBox="0 0 24 24" fill="none" xmlns="http://www.w3.org/2000/svg">
    <path fill-rule="evenodd" clip-rule="evenodd" d="M13.1293 20.1251C13.0725 20.063 13.002 20.0149 12.9235 19.9847C12.8449 19.9544 12.7604 19.9427 12.6766 19.9505C12.4639 19.9505 12.2457 19.9778 12.0275 19.9778C10.337 19.9823 8.68847 19.451 7.31879 18.46C5.94912 17.4691 4.92874 16.0695 4.40423 14.4624C3.87972 12.8553 3.87805 11.1233 4.39947 9.51511C4.9209 7.90697 5.93858 6.50547 7.30635 5.51189C8.67412 4.51831 10.3216 3.98379 12.0121 3.98509C13.7027 3.9864 15.3494 4.52347 16.7156 5.51916C18.0818 6.51485 19.0973 7.91792 19.6163 9.52687C20.1352 11.1358 20.1309 12.8678 19.6039 14.4741C19.5551 14.6005 19.5551 14.7405 19.6039 14.8669L21.4148 18.7614C21.4349 18.8046 21.466 18.8418 21.5049 18.8693C21.5439 18.8967 21.5893 18.9135 21.6368 18.9179C21.6842 18.9223 21.732 18.9142 21.7754 18.8944C21.8187 18.8746 21.8561 18.8438 21.8839 18.8051C23.4936 16.4671 24.2224 13.6341 23.9408 10.8096C23.6592 7.98505 22.3855 5.35177 20.3459 3.37758C18.3063 1.4034 15.6329 0.216149 12.8007 0.0267545C9.96844 -0.16264 7.16078 0.658088 4.87649 2.34313C2.59219 4.02816 0.979183 6.4684 0.324024 9.23031C-0.331136 11.9922 0.0139791 14.8969 1.29805 17.4284C2.58213 19.96 4.72202 21.9543 7.33755 23.0572C9.95308 24.1601 12.8749 24.3001 15.5839 23.4523C15.6272 23.4385 15.6664 23.414 15.6979 23.3811C15.7293 23.3482 15.7521 23.308 15.764 23.264C15.7759 23.2201 15.7767 23.1739 15.7662 23.1296C15.7557 23.0853 15.7343 23.0444 15.7039 23.0105L13.1293 20.1251Z" fill="#FF4D6A"/>
    <path fill-rule="evenodd" clip-rule="evenodd" d="M16.8707 13.3779L15.1852 15.5215C15.1212 15.6014 15.0333 15.6588 14.9343 15.6852L12.2998 16.3615H12.2616H12.2343C12.2328 16.3507 12.2328 16.3396 12.2343 16.3288C12.2318 16.318 12.2318 16.3068 12.2343 16.2961L13.0798 13.0888C13.0908 13.0404 13.1115 12.9947 13.1405 12.9544C13.1696 12.9141 13.2064 12.88 13.2489 12.8542C13.3306 12.7997 13.4301 12.7782 13.5271 12.7942L16.8271 13.2742H16.8598C16.8621 13.2832 16.8621 13.2926 16.8598 13.3015C16.8623 13.3123 16.8623 13.3235 16.8598 13.3342C16.8649 13.3401 16.8686 13.3472 16.8705 13.3547C16.8724 13.3623 16.8725 13.3703 16.8707 13.3779ZM12.5071 17.2288L15.4525 16.4542C15.5523 16.4297 15.6408 16.372 15.7034 16.2906L17.5798 13.9124H17.6125H17.6452L21.1361 21.4179C21.1745 21.5072 21.1895 21.6048 21.1798 21.7015C21.1681 21.7988 21.1304 21.8911 21.0707 21.9688L20.2198 23.1633C20.1648 23.231 20.0907 23.2805 20.007 23.3051L18.5561 23.6924C18.4615 23.7184 18.3617 23.7184 18.267 23.6924C18.1724 23.663 18.0875 23.6083 18.0216 23.5342L12.4634 17.3324V17.3051C12.4606 17.3002 12.459 17.2945 12.459 17.2888C12.459 17.283 12.4606 17.2774 12.4634 17.2724C12.461 17.2683 12.4598 17.2636 12.4598 17.2588C12.4598 17.254 12.461 17.2493 12.4634 17.2451L12.5071 17.2288Z" fill="#FF4D6A"/>
</svg>
