<svg width="32" height="32" viewBox="0 0 32 32" fill="none" xmlns="http://www.w3.org/2000/svg">
<circle cx="16" cy="16" r="16" fill="#009CF0"/>
<path d="M26 15C26.0001 14.4889 25.8533 13.9885 25.5771 13.5585C25.3009 13.1285 24.9069 12.7869 24.442 12.5745C23.9772 12.3621 23.4611 12.2878 22.9552 12.3604C22.4492 12.433 21.9749 12.6495 21.5885 12.9841C20.1923 12.2424 18.5251 11.7942 16.783 11.6904L17.216 9.09237L19.0353 9.37224C19.123 9.83589 19.3718 10.2536 19.7378 10.5515C20.1037 10.8495 20.5632 11.0085 21.035 11.0004C21.5068 10.9923 21.9605 10.8177 22.3161 10.5074C22.6716 10.1971 22.906 9.77115 22.9778 9.30477C23.0496 8.83838 22.9542 8.36163 22.7085 7.95876C22.4628 7.5559 22.0826 7.25287 21.6351 7.10324C21.1875 6.9536 20.7015 6.967 20.2629 7.14105C19.8243 7.31511 19.4613 7.63862 19.2382 8.0544L16.768 7.6744C16.5947 7.64765 16.4178 7.69032 16.2757 7.79315C16.1336 7.89599 16.0378 8.05069 16.0091 8.22371L15.433 11.6802C13.6131 11.7587 11.8652 12.2118 10.4114 12.9841C9.8821 12.5257 9.19362 12.2939 8.49478 12.3389C7.79594 12.3839 7.14287 12.702 6.67667 13.2246C6.21047 13.7471 5.96858 14.4321 6.00328 15.1315C6.03797 15.831 6.34646 16.4886 6.86209 16.9625C6.73265 17.4079 6.66686 17.8695 6.66665 18.3333C6.66665 20.1612 7.67015 21.8626 9.49226 23.1241C11.2396 24.3338 13.5508 25 16 25C18.4492 25 20.7604 24.3338 22.5077 23.1241C24.3298 21.8626 25.3333 20.1612 25.3333 18.3333C25.3331 17.8695 25.2673 17.408 25.1379 16.9626C25.4088 16.7123 25.6253 16.4089 25.7736 16.0712C25.922 15.7335 25.999 15.3688 26 15ZM11.3333 17.3333C11.3333 17.0696 11.4115 16.8118 11.558 16.5926C11.7045 16.3733 11.9128 16.2024 12.1564 16.1015C12.4 16.0006 12.6681 15.9742 12.9268 16.0256C13.1854 16.0771 13.423 16.2041 13.6095 16.3905C13.7959 16.577 13.9229 16.8146 13.9744 17.0732C14.0258 17.3319 13.9994 17.5999 13.8985 17.8436C13.7976 18.0872 13.6267 18.2955 13.4074 18.442C13.1882 18.5885 12.9304 18.6667 12.6667 18.6667C12.3132 18.6663 11.9743 18.5257 11.7243 18.2757C11.4743 18.0257 11.3337 17.6868 11.3333 17.3333ZM19.058 21.5924C18.1123 22.0797 17.0639 22.3339 16 22.3339C14.9362 22.3339 13.8877 22.0797 12.942 21.5924C12.7854 21.511 12.6675 21.3709 12.6141 21.2026C12.5608 21.0344 12.5762 20.8519 12.6572 20.6951C12.7382 20.5383 12.878 20.42 13.0461 20.3661C13.2141 20.3123 13.3967 20.3272 13.5537 20.4077C14.3102 20.7975 15.149 21.0009 16 21.0009C16.851 21.0009 17.6898 20.7975 18.4463 20.4077C18.6034 20.3267 18.7862 20.3114 18.9546 20.3652C19.123 20.4189 19.2631 20.5373 19.3442 20.6944C19.4253 20.8514 19.4407 21.0343 19.387 21.2027C19.3334 21.3711 19.215 21.5113 19.058 21.5924ZM19.3333 18.6667C19.0696 18.6667 18.8118 18.5885 18.5926 18.442C18.3733 18.2955 18.2024 18.0872 18.1015 17.8436C18.0006 17.5999 17.9742 17.3319 18.0256 17.0732C18.0771 16.8146 18.2041 16.577 18.3905 16.3905C18.577 16.2041 18.8146 16.0771 19.0732 16.0256C19.3319 15.9742 19.5999 16.0006 19.8436 16.1015C20.0872 16.2024 20.2954 16.3733 20.442 16.5926C20.5885 16.8118 20.6667 17.0696 20.6667 17.3333C20.6663 17.6868 20.5257 18.0257 20.2757 18.2757C20.0257 18.5257 19.6868 18.6663 19.3333 18.6667Z" fill="white"/>
</svg>
