<svg width="24" height="24" viewBox="0 0 24 24" fill="none" xmlns="http://www.w3.org/2000/svg">
    <path fill-rule="evenodd" clip-rule="evenodd" d="M2.98438 4.09863C3.39859 4.09863 3.73438 4.43442 3.73438 4.84863V8.59863H7.48438C7.89859 8.59863 8.23438 8.93442 8.23438 9.34863C8.23438 9.76285 7.89859 10.0986 7.48438 10.0986H2.98438C2.57016 10.0986 2.23438 9.76285 2.23438 9.34863V4.84863C2.23438 4.43442 2.57016 4.09863 2.98438 4.09863Z" fill="#091941"/>
    <path fill-rule="evenodd" clip-rule="evenodd" d="M10.2442 3.17294C11.99 2.82567 13.7996 3.0039 15.4441 3.68509C17.0887 4.36628 18.4943 5.51983 19.4832 6.99987C20.4721 8.47991 21 10.22 21 12C21 13.78 20.4721 15.5201 19.4832 17.0001C18.4943 18.4802 17.0887 19.6337 15.4441 20.3149C13.7996 20.9961 11.99 21.1743 10.2442 20.8271C8.49834 20.4798 6.8947 19.6226 5.63602 18.364C5.34313 18.0711 5.34313 17.5962 5.63602 17.3033C5.92892 17.0104 6.40379 17.0104 6.69668 17.3033C7.74558 18.3522 9.08195 19.0665 10.5368 19.3559C11.9917 19.6453 13.4997 19.4968 14.8701 18.9291C16.2406 18.3614 17.4119 17.4001 18.236 16.1668C19.0601 14.9334 19.5 13.4834 19.5 12C19.5 10.5166 19.0601 9.0666 18.236 7.83323C17.4119 6.59986 16.2406 5.63856 14.8701 5.07091C13.4997 4.50325 11.9917 4.35473 10.5368 4.64411C9.08195 4.9335 7.74558 5.64781 6.69668 6.6967L3.51471 9.87868C3.22181 10.1716 2.74694 10.1716 2.45404 9.87868C2.16115 9.58579 2.16115 9.11092 2.45404 8.81802L5.63602 5.63604C6.8947 4.37737 8.49834 3.5202 10.2442 3.17294Z" fill="#091941"/>
</svg>
