<svg width="32" height="32" viewBox="0 0 32 32" fill="none" xmlns="http://www.w3.org/2000/svg">
    <path fill-rule="evenodd" clip-rule="evenodd" d="M6 28C4.89543 28 4 27.1046 4 26L4 6C4 4.89543 4.89543 4 6 4H26C27.1046 4 28 4.89543 28 6V26C28 27.1046 27.1046 28 26 28H6ZM6 6L6 26H26V6H6Z" fill="#000"/>
    <path fill-rule="evenodd" clip-rule="evenodd" d="M12.5 12.5C12.5 11.9477 12.9477 11.5 13.5 11.5H19.5C20.0523 11.5 20.5 11.9477 20.5 12.5V18.5C20.5 19.0523 20.0523 19.5 19.5 19.5C18.9477 19.5 18.5 19.0523 18.5 18.5V13.5H13.5C12.9477 13.5 12.5 13.0523 12.5 12.5Z" fill="#000"/>
    <path fill-rule="evenodd" clip-rule="evenodd" d="M20.2071 11.7929C20.5976 12.1834 20.5976 12.8166 20.2071 13.2071L13.2071 20.2071C12.8166 20.5976 12.1834 20.5976 11.7929 20.2071C11.4024 19.8166 11.4024 19.1834 11.7929 18.7929L18.7929 11.7929C19.1834 11.4024 19.8166 11.4024 20.2071 11.7929Z" fill="#000"/>
</svg>
