<svg width="24" height="24" viewBox="0 0 24 24" fill="none" xmlns="http://www.w3.org/2000/svg">
    <path fill-rule="evenodd" clip-rule="evenodd" d="M14.4357 23.4073C14.4357 23.736 14.737 23.9822 15.0534 23.8982C20.2019 22.531 24 17.7882 24 12.1475C24 5.43861 18.6274 0 12 0C5.37258 0 0 5.43861 0 12.1475C0 17.9179 3.9747 22.7486 9.30385 23.9871C9.61667 24.0598 9.90723 23.8149 9.90723 23.4924V20.6145C9.90723 20.3821 9.75265 20.1794 9.53256 20.1076C7.84481 19.5572 6.47976 18.5824 5.4374 17.1834C4.32678 15.6823 3.77148 13.9429 3.77148 11.9652C3.77148 9.35211 4.74131 7.21161 6.68097 5.54369C8.29215 4.1617 10.1262 3.47071 12.1832 3.47071C14.8346 3.47071 16.9737 4.44366 18.6005 6.38956C19.9145 7.96217 20.5715 9.77703 20.5715 11.8341C20.5715 13.8515 19.9888 15.6584 18.8234 17.2549C17.846 18.603 16.5081 19.5539 14.8096 20.1075C14.5899 20.1792 14.4357 20.3817 14.4357 20.6138V23.4073ZM14.2832 13.7942C14.2832 13.5078 14.0521 13.2757 13.7671 13.2757H10.5876C10.3026 13.2757 10.0715 13.5078 10.0715 13.7942V13.9909C10.0715 14.4306 9.57526 14.6483 9.32753 14.2858C8.88495 13.6382 8.66366 12.8726 8.66366 11.989C8.66366 10.9803 9.0117 10.1066 9.70779 9.36799C10.4039 8.62934 11.229 8.26002 12.1832 8.26002C13.1296 8.26002 13.9508 8.62934 14.6469 9.36799C15.343 10.1066 15.691 10.9803 15.691 11.989C15.691 12.8457 15.4723 13.6006 15.0349 14.2537C14.7879 14.6225 14.2832 14.4066 14.2832 13.9621V13.7942Z" fill="#00BFFF"/>
</svg>
