<svg width="48" height="48" viewBox="0 0 48 48" fill="none" xmlns="http://www.w3.org/2000/svg">
    <path fill-rule="evenodd" clip-rule="evenodd" d="M10.499 7.125C10.3996 7.125 10.3042 7.16451 10.2339 7.23484C10.1635 7.30516 10.124 7.40054 10.124 7.5V40.5C10.124 40.5995 10.1635 40.6949 10.2339 40.7652C10.3042 40.8355 10.3996 40.875 10.499 40.875H37.5005C37.5497 40.875 37.5985 40.8653 37.644 40.8465C37.6895 40.8276 37.7308 40.8 37.7657 40.7652C37.8005 40.7304 37.8281 40.689 37.8469 40.6435C37.8658 40.598 37.8755 40.5493 37.8755 40.5V16.966L28.0345 7.125H10.499ZM8.64287 5.64385C9.13515 5.15156 9.80283 4.875 10.499 4.875H28.5005C28.7989 4.875 29.085 4.99353 29.296 5.2045L39.796 15.7045C40.007 15.9155 40.1255 16.2016 40.1255 16.5V40.5C40.1255 40.8447 40.0576 41.1861 39.9257 41.5045C39.7938 41.823 39.6004 42.1124 39.3566 42.3562C39.1129 42.5999 38.8235 42.7933 38.505 42.9252C38.1866 43.0571 37.8452 43.125 37.5005 43.125H10.499C9.80283 43.125 9.13515 42.8484 8.64287 42.3562C8.15058 41.8639 7.87402 41.1962 7.87402 40.5V7.5C7.87402 6.80381 8.15058 6.13613 8.64287 5.64385Z" fill="#009CF0"/>
    <path fill-rule="evenodd" clip-rule="evenodd" d="M28.5 4.875C29.1213 4.875 29.625 5.37868 29.625 6V15.375H39.0015C39.6228 15.375 40.1265 15.8787 40.1265 16.5C40.1265 17.1213 39.6228 17.625 39.0015 17.625H28.5C27.8787 17.625 27.375 17.1213 27.375 16.5V6C27.375 5.37868 27.8787 4.875 28.5 4.875Z" fill="#009CF0"/>
    <path fill-rule="evenodd" clip-rule="evenodd" d="M23.2045 21.7045C23.6438 21.2652 24.3562 21.2652 24.7955 21.7045L30.0455 26.9545C30.4848 27.3938 30.4848 28.1062 30.0455 28.5455C29.6062 28.9848 28.8938 28.9848 28.4545 28.5455L24 24.091L19.5455 28.5455C19.1062 28.9848 18.3938 28.9848 17.9545 28.5455C17.5152 28.1062 17.5152 27.3938 17.9545 26.9545L23.2045 21.7045Z" fill="#009CF0"/>
    <path fill-rule="evenodd" clip-rule="evenodd" d="M24 21.375C24.6213 21.375 25.125 21.8787 25.125 22.5V34.5C25.125 35.1213 24.6213 35.625 24 35.625C23.3787 35.625 22.875 35.1213 22.875 34.5V22.5C22.875 21.8787 23.3787 21.375 24 21.375Z" fill="#009CF0"/>
</svg>
