<svg width="24" height="24" viewBox="0 0 24 24" fill="none" xmlns="http://www.w3.org/2000/svg">
    <path d="M23.63 4.66634C23.168 3.87234 22.318 3.33301 21.3333 3.33301H12V4.66634H23.63ZM0 16.6663H24V17.9997H0V16.6663ZM12 11.333H24V12.6663H12V11.333ZM12 8.66634H24V9.99967H12V8.66634ZM0 13.9997H24V15.333H0V13.9997ZM2.66667 20.6663H21.3333C22.318 20.6663 23.168 20.127 23.63 19.333H0.37C0.832 20.127 1.682 20.6663 2.66667 20.6663ZM12 5.99967H24V7.33301H12V5.99967Z" fill="#B22334"/>
    <path d="M0.0453333 18.453C0.0566667 18.515 0.0693333 18.577 0.0846667 18.6377C0.102 18.705 0.123333 18.7697 0.146 18.835C0.205333 19.0077 0.277333 19.1743 0.368 19.3303L0.37 19.3337H23.63L23.6313 19.331C23.7213 19.1757 23.7933 19.009 23.8527 18.837C23.8753 18.771 23.8973 18.705 23.9147 18.6363C23.93 18.5763 23.9427 18.515 23.954 18.453C23.9813 18.3063 24 18.1557 24 18.0003H0C0 18.1557 0.0186667 18.3057 0.0453333 18.453ZM0 15.3337H24V16.667H0V15.3337ZM0 12.667V14.0003H24V12.667H12H0ZM12 10.0003H24V11.3337H12V10.0003ZM12 7.33366H24V8.66699H12V7.33366ZM0 6.00033C0 5.84499 0.02 5.69566 0.0453333 5.54766C0.0186667 5.69499 0 5.84499 0 6.00033ZM0.37 4.66699L0.368 4.67033L0.37 4.66699ZM0.0853333 5.36299C0.102 5.29499 0.125333 5.23033 0.146667 5.16499C0.124 5.23033 0.102667 5.29566 0.0853333 5.36299ZM12 6.00033H24C24 5.84499 23.9813 5.69433 23.954 5.54699C23.9427 5.48566 23.9307 5.42433 23.9147 5.36433C23.8967 5.29566 23.8753 5.22899 23.852 5.16299C23.7927 4.99099 23.7207 4.82499 23.6307 4.66966C23.6313 4.66899 23.6307 4.66766 23.63 4.66699H12V6.00033Z" fill="#EEEEEE"/>
    <path d="M12 3.33301H2.66667C1.194 3.33301 0 4.52701 0 5.99967V12.6663H12V3.33301Z" fill="#3C3B6E"/>
    <path d="M1.33398 5.15099L1.74598 5.45033L1.58865 5.93366L1.99998 5.63499L2.41198 5.93366L2.25465 5.45033L2.66665 5.15099H2.15732L1.99998 4.66699L1.84332 5.15099H1.33398ZM2.66732 6.48433L3.07932 6.78366L2.92198 7.26699L3.33332 6.96833L3.74532 7.26699L3.58798 6.78366L3.99998 6.48433H3.49065L3.33332 6.00033L3.17665 6.48433H2.66732ZM5.33399 6.48433L5.74599 6.78366L5.58865 7.26699L5.99998 6.96833L6.41198 7.26699L6.25465 6.78366L6.66665 6.48433H6.15732L5.99998 6.00033L5.84332 6.48433H5.33399ZM8.00065 6.48433L8.41265 6.78366L8.25532 7.26699L8.66665 6.96833L9.07865 7.26699L8.92132 6.78366L9.33332 6.48433H8.82399L8.66665 6.00033L8.50998 6.48433H8.00065ZM2.66732 9.15099L3.07932 9.45033L2.92198 9.93366L3.33332 9.63499L3.74532 9.93366L3.58798 9.45033L3.99998 9.15099H3.49065L3.33332 8.66699L3.17665 9.15099H2.66732ZM5.33399 9.15099L5.74599 9.45033L5.58865 9.93366L5.99998 9.63499L6.41198 9.93366L6.25465 9.45033L6.66665 9.15099H6.15732L5.99998 8.66699L5.84332 9.15099H5.33399ZM8.00065 9.15099L8.41265 9.45033L8.25532 9.93366L8.66665 9.63499L9.07865 9.93366L8.92132 9.45033L9.33332 9.15099H8.82399L8.66665 8.66699L8.50998 9.15099H8.00065ZM4.00065 5.15099L4.41265 5.45033L4.25532 5.93366L4.66665 5.63499L5.07865 5.93366L4.92132 5.45033L5.33332 5.15099H4.82398L4.66665 4.66699L4.50998 5.15099H4.00065ZM6.66732 5.15099L7.07932 5.45033L6.92199 5.93366L7.33332 5.63499L7.74532 5.93366L7.58799 5.45033L7.99999 5.15099H7.49065L7.33332 4.66699L7.17665 5.15099H6.66732ZM9.33399 5.15099L9.74599 5.45033L9.58865 5.93366L9.99999 5.63499L10.412 5.93366L10.2547 5.45033L10.6667 5.15099H10.1573L9.99999 4.66699L9.84332 5.15099H9.33399ZM1.33398 7.81766L1.74598 8.11699L1.58865 8.60033L1.99998 8.30166L2.41198 8.60033L2.25465 8.11699L2.66665 7.81766H2.15732L1.99998 7.33366L1.84332 7.81766H1.33398ZM4.25532 8.60033L4.66665 8.30166L5.07865 8.60033L4.92132 8.11699L5.33332 7.81766H4.82398L4.66665 7.33366L4.50998 7.81766H4.00065L4.41265 8.11699L4.25532 8.60033ZM6.66732 7.81766L7.07932 8.11699L6.92199 8.60033L7.33332 8.30166L7.74532 8.60033L7.58799 8.11699L7.99999 7.81766H7.49065L7.33332 7.33366L7.17665 7.81766H6.66732ZM9.33399 7.81766L9.74599 8.11699L9.58865 8.60033L9.99999 8.30166L10.412 8.60033L10.2547 8.11699L10.6667 7.81766H10.1573L9.99999 7.33366L9.84332 7.81766H9.33399ZM1.33398 10.4843L1.74598 10.7837L1.58865 11.267L1.99998 10.9683L2.41198 11.267L2.25465 10.7837L2.66665 10.4843H2.15732L1.99998 10.0003L1.84332 10.4843H1.33398ZM4.25532 11.267L4.66665 10.9683L5.07865 11.267L4.92132 10.7837L5.33332 10.4843H4.82398L4.66665 10.0003L4.50998 10.4843H4.00065L4.41265 10.7837L4.25532 11.267ZM6.66732 10.4843L7.07932 10.7837L6.92199 11.267L7.33332 10.9683L7.74532 11.267L7.58799 10.7837L7.99999 10.4843H7.49065L7.33332 10.0003L7.17665 10.4843H6.66732ZM9.33399 10.4843L9.74599 10.7837L9.58865 11.267L9.99999 10.9683L10.412 11.267L10.2547 10.7837L10.6667 10.4843H10.1573L9.99999 10.0003L9.84332 10.4843H9.33399Z" fill="white"/>
</svg>
