<svg width="32" height="32" viewBox="0 0 32 32" fill="none" xmlns="http://www.w3.org/2000/svg">
<path fill-rule="evenodd" clip-rule="evenodd" d="M16 5C9.92487 5 5 9.92487 5 16C5 22.0751 9.92487 27 16 27C22.0751 27 27 22.0751 27 16C27 9.92487 22.0751 5 16 5ZM3 16C3 8.8203 8.8203 3 16 3C23.1797 3 29 8.8203 29 16C29 23.1797 23.1797 29 16 29C8.8203 29 3 23.1797 3 16Z" fill="#009CF0"/>
<path fill-rule="evenodd" clip-rule="evenodd" d="M16 11C13.7909 11 12 12.7909 12 15C12 17.2091 13.7909 19 16 19C18.2091 19 20 17.2091 20 15C20 12.7909 18.2091 11 16 11ZM10 15C10 11.6863 12.6863 9 16 9C19.3137 9 22 11.6863 22 15C22 18.3137 19.3137 21 16 21C12.6863 21 10 18.3137 10 15Z" fill="#009CF0"/>
<path fill-rule="evenodd" clip-rule="evenodd" d="M15.9999 21C14.5229 21 13.0747 21.4087 11.8157 22.1809C10.5566 22.9531 9.53575 24.0586 8.86615 25.3751C8.61578 25.8674 8.01374 26.0635 7.52147 25.8131C7.0292 25.5627 6.83311 24.9607 7.08349 24.4684C7.92042 22.8229 9.19635 21.4411 10.7701 20.476C12.3438 19.5109 14.1538 19 15.9999 19C17.846 19 19.6561 19.5108 21.2298 20.476C22.8035 21.4411 24.0794 22.8229 24.9164 24.4684C25.1668 24.9606 24.9707 25.5627 24.4784 25.8131C23.9861 26.0634 23.3841 25.8673 23.1337 25.3751C22.4641 24.0586 21.4433 22.9531 20.1842 22.1809C18.9251 21.4087 17.4769 21 15.9999 21Z" fill="#009CF0"/>
</svg>
