<svg width="96" height="96" viewBox="0 0 96 96" fill="none" xmlns="http://www.w3.org/2000/svg">
    <g clip-path="url(#clip0_3960_246167)">
        <path d="M49.3202 26.7842C43.3493 26.7842 37.8317 29.9696 34.8464 35.1407L14.1831 70.9305C7.75016 82.0727 15.7913 96.0002 28.657 96.0002H69.9835C82.8492 96.0002 90.8903 82.0727 84.4574 70.9305L63.7943 35.1407C60.8087 29.9696 55.2914 26.7842 49.3202 26.7842Z" fill="#B2E7F1"/>
        <path d="M48.4283 26.7841H50.2123C52.5173 26.7841 54.6469 25.5545 55.7995 23.5583L63.8008 9.69966C66.8567 4.40691 61.525 -1.77291 55.8415 0.474469L51.6927 2.11509C50.1685 2.71772 48.4722 2.71772 46.948 2.11509L42.7992 0.474469C37.1157 -1.77291 31.7839 4.40672 34.8398 9.69966L42.8412 23.5583C43.9935 25.5545 46.1233 26.7841 48.4283 26.7841Z" fill="#B2E7F1"/>
        <path d="M84.4575 70.9305L63.7943 35.1407C60.8089 29.9696 55.2913 26.7842 49.3204 26.7842C47.638 26.7842 45.9913 27.0373 44.4274 27.5162C47.2881 28.5654 49.7531 30.6941 51.3107 33.5856L67.0015 62.7156C71.8862 71.7842 65.7803 83.1201 56.0106 83.1201H24.6291C18.9193 83.1201 14.4621 79.2474 12.718 74.2189C9.34839 84.6309 17.0327 96.0002 28.657 96.0002H69.9835C82.8493 96.0002 90.8905 82.0727 84.4575 70.9305Z" fill="#A7ADF1"/>
        <path d="M49.6688 26.1272C48.9912 27.6405 49.3202 29.415 50.4955 30.5846L63.2098 43.2375C65.8945 45.9092 70.4421 43.686 69.9827 39.9264L69.6666 37.3389C69.4872 35.8706 70.1352 34.4235 71.3502 33.5794L73.491 32.0921C76.6015 29.9312 75.2316 25.0582 71.4507 24.8346L53.5444 23.7756C51.8895 23.6777 50.3464 24.6139 49.6688 26.1272Z" fill="#EF8BBD"/>
        <path d="M48.9719 26.1272C49.6495 27.6405 49.3204 29.415 48.1452 30.5846L35.4308 43.2375C32.7462 45.9092 28.1985 43.686 28.6579 39.9264L28.974 37.3389C29.1535 35.8706 28.5055 34.4235 27.2905 33.5794L25.1496 32.0921C22.0392 29.9312 23.409 25.0582 27.19 24.8346L45.0962 23.7756C46.7511 23.6777 48.2942 24.6139 48.9719 26.1272Z" fill="#EF8BBD"/>
        <path d="M38.2214 31.5056C37.7202 31.5056 37.255 31.1846 37.0945 30.6815C36.8961 30.059 37.2398 29.3936 37.8623 29.195L48.9608 25.6569C49.5822 25.4583 50.2488 25.8018 50.4473 26.4247C50.6457 27.0472 50.302 27.7126 49.6795 27.9112L38.581 31.4493C38.4618 31.4874 38.3406 31.5056 38.2214 31.5056Z" fill="#B74A96"/>
        <path d="M60.8704 31.5055C60.7512 31.5055 60.6301 31.4875 60.5108 31.4493L49.4123 27.9111C48.7898 27.7126 48.4461 27.0471 48.6445 26.4246C48.8431 25.8021 49.5096 25.4583 50.131 25.6568L61.2295 29.195C61.852 29.3935 62.1957 30.059 61.9973 30.6815C61.8368 31.1843 61.3714 31.5055 60.8704 31.5055Z" fill="#B74A96"/>
        <path d="M48.0325 19.4914C47.3438 19.4914 46.675 19.1297 46.3127 18.487L44.5915 15.4309C44.0569 14.4822 44.3929 13.2797 45.3419 12.7454C46.2902 12.2108 47.4929 12.547 48.0274 13.4957L49.7487 16.5518C50.2832 17.5006 49.9472 18.703 48.9983 19.2374C48.6927 19.4095 48.3602 19.4914 48.0325 19.4914Z" fill="white"/>
        <path d="M43.2674 11.03C42.5781 11.03 41.9089 10.668 41.5473 10.0243L41.2351 9.47021C40.7005 8.52146 41.0361 7.31921 41.9851 6.78465C42.9334 6.2499 44.1363 6.58571 44.6706 7.53465L44.9843 8.09152C45.5183 9.04065 45.1816 10.2427 44.2323 10.7763C43.9266 10.9485 43.5948 11.03 43.2674 11.03Z" fill="white"/>
        <path fill-rule="evenodd" clip-rule="evenodd" d="M26.2622 55.5701C25.9173 56.2229 25.9758 56.9815 26.3494 57.5608C26.5268 57.8359 26.7752 58.0706 27.0855 58.2341C28.0485 58.7426 29.2412 58.3741 29.7494 57.4109L30.0473 56.8454C30.5551 55.882 30.1854 54.6892 29.2219 54.182C28.2584 53.6743 27.0661 54.0439 26.5586 55.0074L26.2622 55.5701ZM21.7334 64.1618C21.3896 64.8146 21.4482 65.5727 21.8215 66.1514C21.9992 66.4269 22.2482 66.6618 22.5585 66.8254C23.5219 67.3332 24.7145 66.9638 25.2221 66.0003L26.8573 62.8973C27.3648 61.9339 26.9955 60.741 26.0322 60.2338C25.0688 59.726 23.8762 60.0954 23.3687 61.0588L21.7334 64.1618Z" fill="white"/>
        <path d="M82.1269 0.530336L83.7465 5.08452C83.8159 5.27952 83.9531 5.43402 84.1264 5.51202L88.1726 7.3349C88.7443 7.59252 88.7443 8.50321 88.1726 8.76084L84.1264 10.5837C83.9531 10.6617 83.8159 10.8162 83.7465 11.0112L82.1269 15.5654C81.8981 16.2089 81.0889 16.2089 80.86 15.5654L79.2403 11.0112C79.171 10.8162 79.0337 10.6617 78.8605 10.5837L74.8142 8.76084C74.2425 8.5034 74.2425 7.59252 74.8142 7.3349L78.8605 5.51202C79.0337 5.43402 79.171 5.27952 79.2403 5.08452L80.86 0.530336C81.0889 -0.112977 81.898 -0.112977 82.1269 0.530336Z" fill="#F7C4DB"/>
        <path d="M8.69421 34.4381L10.3138 38.9922C10.3832 39.1872 10.5205 39.3417 10.6937 39.4197L14.74 41.2426C15.3116 41.5002 15.3116 42.4109 14.74 42.6686L10.6937 44.4914C10.5205 44.5694 10.3832 44.7241 10.3138 44.9189L8.69421 49.4731C8.46546 50.1166 7.65621 50.1166 7.42727 49.4731L5.80765 44.9189C5.73827 44.7239 5.60102 44.5694 5.42777 44.4914L1.38152 42.6686C0.809837 42.4109 0.809837 41.5002 1.38152 41.2426L5.42777 39.4197C5.60102 39.3417 5.73827 39.1872 5.80765 38.9922L7.42727 34.4381C7.65621 33.7947 8.46527 33.7947 8.69421 34.4381Z" fill="#F7C4DB"/>
        <path d="M18.6281 5.67981L19.8296 9.058C19.881 9.20256 19.9828 9.31731 20.1114 9.37525L23.1129 10.7275C23.5369 10.9186 23.5369 11.5941 23.1129 11.7852L20.1114 13.1374C19.983 13.1954 19.881 13.3099 19.8296 13.4545L18.6281 16.8327C18.4584 17.3099 17.8583 17.3099 17.6884 16.8327L16.4869 13.4545C16.4355 13.3099 16.3337 13.1952 16.2051 13.1374L13.2038 11.7852C12.7798 11.5941 12.7798 10.9186 13.2038 10.7275L16.2051 9.37525C16.3335 9.31731 16.4353 9.20275 16.4869 9.058L17.6884 5.67981C17.8583 5.20243 18.4584 5.20243 18.6281 5.67981Z" fill="#F7C4DB"/>
        <path d="M92.0582 36.0043C93.0856 34.3421 92.571 32.1618 90.9088 31.1344C89.2467 30.107 87.0663 30.6216 86.0389 32.2838C85.0115 33.946 85.5261 36.1263 87.1883 37.1537C88.8505 38.1811 91.0309 37.6665 92.0582 36.0043Z" fill="#EF8BBD"/>
        <path d="M95.0472 19.2311C95.0472 20.0737 94.3641 20.7566 93.5217 20.7566C92.679 20.7566 91.996 20.0735 91.996 19.2311C91.996 18.3884 92.679 17.7056 93.5217 17.7056C94.3643 17.7056 95.0472 18.3884 95.0472 19.2311Z" fill="#EF8BBD"/>
    </g>
    <defs>
        <clipPath id="clip0_3960_246167">
            <rect width="96" height="96" fill="white"/>
        </clipPath>
    </defs>
</svg>
