<svg width="96" height="96" viewBox="0 0 96 96" fill="none" xmlns="http://www.w3.org/2000/svg">
    <g clip-path="url(#clip0_3960_246143)">
        <path d="M1.53511 93.371C3.09005 94.926 5.45055 95.3449 7.44541 94.4197L61.5859 71.1102C64.2358 69.8815 64.8551 66.391 62.7898 64.3255L30.6977 32.2334C28.6322 30.1679 25.1417 30.7872 23.9129 33.4373L0.48649 87.4607C-0.438582 89.4556 -0.0198267 91.8161 1.53511 93.371Z" fill="#FFE266"/>
        <path d="M46.6352 66.0042L6.83691 83.1388C5.43035 83.7909 3.77823 83.5323 2.63685 82.5018L0.486307 87.461C-0.438765 89.4561 -0.0200099 91.8164 1.53493 93.3713C3.08986 94.9262 5.45036 95.345 7.44522 94.4199L61.0665 71.3341C59.8312 70.839 46.8361 65.9111 46.6352 66.0042Z" fill="#EFAA66"/>
        <path d="M63.1647 68.9212C66.8642 65.2217 61.4855 53.845 51.151 43.5105C40.8166 33.1761 29.4398 27.7973 25.7404 31.4968C22.0409 35.1963 27.4196 46.573 37.754 56.9075C48.0885 67.2419 59.4652 72.6207 63.1647 68.9212Z" fill="#FFE266"/>
        <path d="M53.7891 64.1538C56.2159 61.727 52.2851 53.8616 45.0093 46.5859C37.7336 39.3101 29.8682 35.3793 27.4414 37.8061C25.0146 40.2329 28.9454 48.0983 36.2211 55.374C43.4969 62.6498 51.3623 66.5806 53.7891 64.1538Z" fill="#EFAA66"/>
        <path d="M59.8351 72.0176C53.9377 72.0176 44.8045 66.6721 36.4025 58.27C28.7731 50.6405 23.545 42.238 22.7593 36.3418C22.619 35.2882 23.3589 34.3204 24.4125 34.1801C25.4652 34.0402 26.4339 34.7797 26.5742 35.8333C27.2437 40.8557 32.1699 48.5944 39.1242 55.5485C48.0098 64.4342 56.2035 68.3084 60.0542 68.1645C61.115 68.1258 62.0112 68.9491 62.0535 70.0112C62.0957 71.0731 61.2689 71.9683 60.2069 72.0104C60.0847 72.0151 59.96 72.0176 59.8351 72.0176Z" fill="#D0844B"/>
        <path d="M39.2596 42.3083C38.808 41.8566 38.4595 41.2891 38.2659 40.6332L36.4863 34.6098C35.8141 32.3351 36.4207 29.898 38.069 28.2498L41.3039 25.0148C42.9524 23.3663 45.3895 22.7599 47.6642 23.4321L54.1437 25.2609L51.9583 17.4641C51.3391 15.3682 52.5362 13.1673 54.6321 12.548C56.728 11.9287 58.929 13.1259 59.5485 15.2218L61.328 21.2452C62 23.5201 61.3936 25.9572 59.7453 27.6053L56.5104 30.8402C54.8621 32.4885 52.425 33.0949 50.1503 32.4229L43.6046 30.2883L45.856 38.3909C46.4753 40.4868 45.2781 42.6878 43.1822 43.307C41.7418 43.7325 40.2517 43.3003 39.2596 42.3083Z" fill="#CAB4EF"/>
        <path d="M54.1437 25.2612L47.6642 23.4324C45.709 22.8547 43.6345 23.2222 42.0433 24.3833C42.4888 26.1647 43.0556 28.5344 43.6044 30.2884L50.1502 32.4229C52.1981 33.028 54.3772 32.5963 55.9943 31.3016C55.4216 29.5088 54.6887 27.0624 54.1437 25.2612Z" fill="#A183E2"/>
        <path d="M64.3205 39.492C64.7721 39.9437 65.3399 40.2922 65.9955 40.4858L72.019 42.2653C74.2934 42.9373 76.7307 42.3309 78.379 40.6827L81.614 37.4477C83.2624 35.7992 83.8688 33.3621 83.1966 31.0875L81.3678 24.6079L89.1646 26.7931C91.2605 27.4124 93.4617 26.2152 94.081 24.1193C94.7002 22.0234 93.5031 19.8225 91.4072 19.2032L85.3837 17.4237C83.1088 16.7517 80.6718 17.3582 79.0237 19.0063L75.7887 22.2413C74.1404 23.8895 73.5341 26.3266 74.2061 28.6013L76.3404 35.1471L68.2378 32.8957C66.142 32.2764 63.941 33.4736 63.3217 35.5695C62.896 37.0099 63.3284 38.5 64.3205 39.492Z" fill="#F7C4DB"/>
        <path d="M83.1964 31.0874L81.3676 24.6078C79.4825 24.2016 76.8452 23.6818 74.9637 23.2598C73.9563 24.8099 73.6615 26.7588 74.2059 28.6014L76.3403 35.1471C78.2918 35.629 80.3569 35.9614 82.2306 36.7286C83.4035 35.1348 83.7766 33.0509 83.1964 31.0874Z" fill="#EF8BBD"/>
        <path d="M73.5333 6.95131C72.2786 8.20603 70.244 8.20603 68.9893 6.95131C67.7346 5.69658 67.7346 3.66208 68.9893 2.40735C70.244 1.15263 72.2786 1.15263 73.5333 2.40735C74.788 3.66227 74.788 5.69658 73.5333 6.95131Z" fill="#FFA585"/>
        <path d="M78.3817 60.3308C80.1562 60.3308 81.5947 58.8923 81.5947 57.1178C81.5947 55.3433 80.1562 53.9048 78.3817 53.9048C76.6072 53.9048 75.1686 55.3433 75.1686 57.1178C75.1686 58.8923 76.6072 60.3308 78.3817 60.3308Z" fill="#78EAC4"/>
        <path d="M60.8046 59.9733C59.5499 61.228 57.5154 61.228 56.2606 59.9733C55.0059 58.7186 55.0059 56.6841 56.2606 55.4293C57.5154 54.1746 59.5499 54.1746 60.8046 55.4293C62.0593 56.6842 62.0593 58.7186 60.8046 59.9733Z" fill="#78EAC4"/>
        <path d="M60.8046 59.9733C59.5499 61.228 57.5154 61.228 56.2606 59.9733C55.0059 58.7186 55.0059 56.6841 56.2606 55.4293C57.5154 54.1746 59.5499 54.1746 60.8046 55.4293C62.0593 56.6842 62.0593 58.7186 60.8046 59.9733Z" fill="#8BB6EF"/>
        <path d="M17.4938 69.3929C17.24 69.3929 16.9817 69.3423 16.7339 69.2355C15.7576 68.8152 15.3069 67.6832 15.7274 66.707L18.1645 61.0465C18.5848 60.0704 19.7171 59.6189 20.693 60.04C21.6693 60.4603 22.12 61.5922 21.6995 62.5685L19.2624 68.229C18.9489 68.957 18.2394 69.3929 17.4938 69.3929Z" fill="white"/>
        <path d="M22.6584 57.3983C22.4046 57.3983 22.1465 57.3477 21.8982 57.2409C20.9222 56.8206 20.4715 55.6886 20.892 54.7122L21.6348 52.9867C22.0551 52.0108 23.1866 51.5594 24.1635 51.9804C25.1396 52.4007 25.5903 53.5327 25.17 54.5091L24.4271 56.2346C24.1134 56.9624 23.4037 57.3983 22.6584 57.3983Z" fill="white"/>
        <path d="M37.7605 1.56436L39.3412 6.0094C39.409 6.19973 39.5429 6.3506 39.7121 6.42681L43.6612 8.20613C44.2191 8.45746 44.2191 9.34636 43.6612 9.59788L39.7121 11.3772C39.5429 11.4534 39.409 11.6043 39.3412 11.7944L37.7605 16.2395C37.5373 16.8674 36.7473 16.8674 36.5241 16.2395L34.9433 11.7944C34.8756 11.6041 34.7416 11.4532 34.5725 11.3772L30.6234 9.59788C30.0655 9.34655 30.0655 8.45766 30.6234 8.20613L34.5725 6.42681C34.7416 6.3506 34.8756 6.19973 34.9433 6.0094L36.5241 1.56436C36.7473 0.936229 37.5373 0.936229 37.7605 1.56436Z" fill="#F7C4DB"/>
        <path d="M91.3127 41.5241L92.4852 44.8212C92.5355 44.9625 92.6348 45.0743 92.7602 45.1308L95.6896 46.4506C96.1035 46.6371 96.1035 47.2964 95.6896 47.4829L92.7602 48.8027C92.6348 48.8592 92.5355 48.971 92.4852 49.1123L91.3127 52.4094C91.147 52.8753 90.5612 52.8753 90.3955 52.4094L89.223 49.1123C89.1727 48.971 89.0734 48.8592 88.9479 48.8027L86.0186 47.4829C85.6046 47.2964 85.6046 46.6371 86.0186 46.4506L88.9479 45.1308C89.0734 45.0743 89.1727 44.9625 89.223 44.8212L90.3955 41.5241C90.5612 41.0584 91.147 41.0584 91.3127 41.5241Z" fill="#CAB4EF"/>
        <path d="M69.51 16.6947C70.3324 16.6947 70.999 16.028 70.999 15.2057C70.999 14.3834 70.3324 13.7168 69.51 13.7168C68.6877 13.7168 68.0211 14.3834 68.0211 15.2057C68.0211 16.028 68.6877 16.6947 69.51 16.6947Z" fill="#78EAC4"/>
        <path d="M92.0533 5.99076C92.2385 4.48345 91.1666 3.1114 89.6592 2.9262C88.1518 2.741 86.7797 3.81278 86.5945 5.32009C86.4093 6.8274 87.4812 8.19945 88.9886 8.38465C90.496 8.56985 91.8681 7.49807 92.0533 5.99076Z" fill="#8BB6EF"/>
        <path d="M1.53511 93.371C3.09005 94.926 5.45055 95.3449 7.44541 94.4197L61.5859 71.1102C64.2358 69.8815 64.8551 66.391 62.7898 64.3255L30.6977 32.2334C28.6322 30.1679 25.1417 30.7872 23.9129 33.4373L0.48649 87.4607C-0.438582 89.4556 -0.0198267 91.8161 1.53511 93.371Z" fill="#FFE266"/>
        <path d="M46.6352 66.0042L6.83691 83.1388C5.43035 83.7909 3.77823 83.5323 2.63685 82.5018L0.486307 87.461C-0.438765 89.4561 -0.0200099 91.8164 1.53493 93.3713C3.08986 94.9262 5.45036 95.345 7.44522 94.4199L61.0665 71.3341C59.8312 70.839 46.8361 65.9111 46.6352 66.0042Z" fill="#EFAA66"/>
        <path d="M63.1647 68.9212C66.8642 65.2217 61.4855 53.845 51.151 43.5105C40.8166 33.1761 29.4398 27.7973 25.7404 31.4968C22.0409 35.1963 27.4196 46.573 37.754 56.9075C48.0885 67.2419 59.4652 72.6207 63.1647 68.9212Z" fill="#FFE266"/>
        <path d="M53.7891 64.1538C56.2159 61.727 52.2851 53.8616 45.0093 46.5859C37.7336 39.3101 29.8682 35.3793 27.4414 37.8061C25.0146 40.2329 28.9454 48.0983 36.2211 55.374C43.4969 62.6498 51.3623 66.5806 53.7891 64.1538Z" fill="#EFAA66"/>
        <path d="M59.8351 72.0176C53.9377 72.0176 44.8045 66.6721 36.4025 58.27C28.7731 50.6405 23.545 42.238 22.7593 36.3418C22.619 35.2882 23.3589 34.3204 24.4125 34.1801C25.4652 34.0402 26.4339 34.7797 26.5742 35.8333C27.2437 40.8557 32.1699 48.5944 39.1242 55.5485C48.0098 64.4342 56.2035 68.3084 60.0542 68.1645C61.115 68.1258 62.0112 68.9491 62.0535 70.0112C62.0957 71.0731 61.2689 71.9683 60.2069 72.0104C60.0847 72.0151 59.96 72.0176 59.8351 72.0176Z" fill="#D0844B"/>
        <path d="M39.2596 42.3083C38.808 41.8566 38.4595 41.2891 38.2659 40.6332L36.4863 34.6098C35.8141 32.3351 36.4207 29.898 38.069 28.2498L41.3039 25.0148C42.9524 23.3663 45.3895 22.7599 47.6642 23.4321L54.1437 25.2609L51.9583 17.4641C51.3391 15.3682 52.5362 13.1673 54.6321 12.548C56.728 11.9287 58.929 13.1259 59.5485 15.2218L61.328 21.2452C62 23.5201 61.3936 25.9572 59.7453 27.6053L56.5104 30.8402C54.8621 32.4885 52.425 33.0949 50.1503 32.4229L43.6046 30.2883L45.856 38.3909C46.4753 40.4868 45.2781 42.6878 43.1822 43.307C41.7418 43.7325 40.2517 43.3003 39.2596 42.3083Z" fill="#CAB4EF"/>
        <path d="M54.1437 25.2612L47.6642 23.4324C45.709 22.8547 43.6345 23.2222 42.0433 24.3833C42.4888 26.1647 43.0556 28.5344 43.6044 30.2884L50.1502 32.4229C52.1981 33.028 54.3772 32.5963 55.9943 31.3016C55.4216 29.5088 54.6887 27.0624 54.1437 25.2612Z" fill="#A183E2"/>
        <path d="M64.3205 39.492C64.7721 39.9437 65.3399 40.2922 65.9955 40.4858L72.019 42.2653C74.2934 42.9373 76.7307 42.3309 78.379 40.6827L81.614 37.4477C83.2624 35.7992 83.8688 33.3621 83.1966 31.0875L81.3678 24.6079L89.1646 26.7931C91.2605 27.4124 93.4617 26.2152 94.081 24.1193C94.7002 22.0234 93.5031 19.8225 91.4072 19.2032L85.3837 17.4237C83.1088 16.7517 80.6718 17.3582 79.0237 19.0063L75.7887 22.2413C74.1404 23.8895 73.5341 26.3266 74.2061 28.6013L76.3404 35.1471L68.2378 32.8957C66.142 32.2764 63.941 33.4736 63.3217 35.5695C62.896 37.0099 63.3284 38.5 64.3205 39.492Z" fill="#F7C4DB"/>
        <path d="M83.1964 31.0874L81.3676 24.6078C79.4825 24.2016 76.8452 23.6818 74.9637 23.2598C73.9563 24.8099 73.6615 26.7588 74.2059 28.6014L76.3403 35.1471C78.2918 35.629 80.3569 35.9614 82.2306 36.7286C83.4035 35.1348 83.7766 33.0509 83.1964 31.0874Z" fill="#EF8BBD"/>
        <path d="M73.5333 6.95131C72.2786 8.20603 70.244 8.20603 68.9893 6.95131C67.7346 5.69658 67.7346 3.66208 68.9893 2.40735C70.244 1.15263 72.2786 1.15263 73.5333 2.40735C74.788 3.66227 74.788 5.69658 73.5333 6.95131Z" fill="#FFA585"/>
        <path d="M78.3817 60.3308C80.1562 60.3308 81.5947 58.8923 81.5947 57.1178C81.5947 55.3433 80.1562 53.9048 78.3817 53.9048C76.6072 53.9048 75.1686 55.3433 75.1686 57.1178C75.1686 58.8923 76.6072 60.3308 78.3817 60.3308Z" fill="#78EAC4"/>
        <path d="M60.8046 59.9733C59.5499 61.228 57.5154 61.228 56.2606 59.9733C55.0059 58.7186 55.0059 56.6841 56.2606 55.4293C57.5154 54.1746 59.5499 54.1746 60.8046 55.4293C62.0593 56.6842 62.0593 58.7186 60.8046 59.9733Z" fill="#78EAC4"/>
        <path d="M60.8046 59.9733C59.5499 61.228 57.5154 61.228 56.2606 59.9733C55.0059 58.7186 55.0059 56.6841 56.2606 55.4293C57.5154 54.1746 59.5499 54.1746 60.8046 55.4293C62.0593 56.6842 62.0593 58.7186 60.8046 59.9733Z" fill="#8BB6EF"/>
        <path d="M17.4938 69.3929C17.24 69.3929 16.9817 69.3423 16.7339 69.2355C15.7576 68.8152 15.3069 67.6832 15.7274 66.707L18.1645 61.0465C18.5848 60.0704 19.7171 59.6189 20.693 60.04C21.6693 60.4603 22.12 61.5922 21.6995 62.5685L19.2624 68.229C18.9489 68.957 18.2394 69.3929 17.4938 69.3929Z" fill="white"/>
        <path d="M22.6584 57.3983C22.4046 57.3983 22.1465 57.3477 21.8982 57.2409C20.9222 56.8206 20.4715 55.6886 20.892 54.7122L21.6348 52.9867C22.0551 52.0108 23.1866 51.5594 24.1635 51.9804C25.1396 52.4007 25.5903 53.5327 25.17 54.5091L24.4271 56.2346C24.1134 56.9624 23.4037 57.3983 22.6584 57.3983Z" fill="white"/>
        <path d="M37.7605 1.56436L39.3412 6.0094C39.409 6.19973 39.5429 6.3506 39.7121 6.42681L43.6612 8.20613C44.2191 8.45746 44.2191 9.34636 43.6612 9.59788L39.7121 11.3772C39.5429 11.4534 39.409 11.6043 39.3412 11.7944L37.7605 16.2395C37.5373 16.8674 36.7473 16.8674 36.5241 16.2395L34.9433 11.7944C34.8756 11.6041 34.7416 11.4532 34.5725 11.3772L30.6234 9.59788C30.0655 9.34655 30.0655 8.45766 30.6234 8.20613L34.5725 6.42681C34.7416 6.3506 34.8756 6.19973 34.9433 6.0094L36.5241 1.56436C36.7473 0.936229 37.5373 0.936229 37.7605 1.56436Z" fill="#F7C4DB"/>
        <path d="M91.3127 41.5241L92.4852 44.8212C92.5355 44.9625 92.6348 45.0743 92.7602 45.1308L95.6896 46.4506C96.1035 46.6371 96.1035 47.2964 95.6896 47.4829L92.7602 48.8027C92.6348 48.8592 92.5355 48.971 92.4852 49.1123L91.3127 52.4094C91.147 52.8753 90.5612 52.8753 90.3955 52.4094L89.223 49.1123C89.1727 48.971 89.0734 48.8592 88.9479 48.8027L86.0186 47.4829C85.6046 47.2964 85.6046 46.6371 86.0186 46.4506L88.9479 45.1308C89.0734 45.0743 89.1727 44.9625 89.223 44.8212L90.3955 41.5241C90.5612 41.0584 91.147 41.0584 91.3127 41.5241Z" fill="#CAB4EF"/>
        <path d="M69.51 16.6947C70.3324 16.6947 70.999 16.028 70.999 15.2057C70.999 14.3834 70.3324 13.7168 69.51 13.7168C68.6877 13.7168 68.0211 14.3834 68.0211 15.2057C68.0211 16.028 68.6877 16.6947 69.51 16.6947Z" fill="#78EAC4"/>
        <path d="M92.0533 5.99076C92.2385 4.48345 91.1666 3.1114 89.6592 2.9262C88.1518 2.741 86.7797 3.81278 86.5945 5.32009C86.4093 6.8274 87.4812 8.19945 88.9886 8.38465C90.496 8.56985 91.8681 7.49807 92.0533 5.99076Z" fill="#8BB6EF"/>
    </g>
    <defs>
        <clipPath id="clip0_3960_246143">
            <rect width="96" height="96" fill="white"/>
        </clipPath>
    </defs>
</svg>
