<svg width="96" height="96" viewBox="0 0 96 96" fill="none" xmlns="http://www.w3.org/2000/svg">
    <g clip-path="url(#clip0_3960_246154)">
        <path d="M11.0372 57.7943V82.0118C11.0372 88.9472 16.6596 94.5696 23.595 94.5696H47.9674L69.2459 74.8157L52.1436 49.6392L11.0372 57.7943Z" fill="#8BB6EF"/>
        <path d="M72.3171 20.709H47.9674V31.8733C47.9674 33.0502 47.0132 33.8169 45.8361 33.8169H37.9168C36.7397 33.8169 35.598 34.9586 35.598 36.1357V43.7936C35.598 44.9707 36.7397 46.1122 37.9168 46.1122H45.8361C47.0132 46.1122 47.7799 46.8789 47.7799 48.056V57.7939L58.018 57.8452C59.1951 57.8452 60.1493 56.891 60.1493 55.7139V48.0562C60.1493 46.8793 61.1035 45.9249 62.2806 45.9249H70.1998C71.377 45.9249 72.3311 46.8791 72.3311 48.0562V55.7141C72.3311 56.8912 73.2853 57.8454 74.4625 57.8454H84.898V33.2899C84.8978 26.3417 79.2651 20.709 72.3171 20.709Z" fill="#B2E7F1"/>
        <path d="M72.331 55.714V48.0561C72.331 46.8792 71.3768 45.9248 70.1997 45.9248H62.2804C61.1033 45.9248 60.1491 46.879 60.1491 48.0561V55.714C60.1491 56.8911 59.1949 57.8453 58.0178 57.8453L47.9672 57.7939V67.6343C47.9672 68.8112 48.9214 69.7656 50.0985 69.7656H58.0178C59.1949 69.7656 60.1491 70.7198 60.1491 71.8967V79.5546C60.1491 80.7317 59.1949 81.6859 58.0178 81.6859H50.0985C48.9214 81.6859 47.9672 82.6401 47.9672 83.8171V94.5692H72.3167C79.2649 94.5692 84.8974 88.9367 84.8974 81.9886V57.8453H74.4619C73.2852 57.8453 72.331 56.8911 72.331 55.714Z" fill="#F7C4DB"/>
        <path d="M23.5448 59.9254V67.5833C23.5448 68.7604 24.499 69.7144 25.6759 69.7144H33.5952C34.7723 69.7144 35.7265 68.7602 35.7265 67.5831V59.9254C35.7265 58.7483 36.6807 57.7939 37.8578 57.7939H47.9687V48.0049C47.9687 46.828 46.954 45.8736 45.7768 45.8736H37.8574C36.6803 45.8736 35.7754 44.8703 35.7754 43.6932V36.1264C35.7754 34.8991 36.7213 34.0028 37.9487 34.0028H46.072C47.086 34.0028 47.9672 33.1309 47.9672 32.1169V20.7085H23.1664C16.4627 20.7085 10.978 26.1932 10.978 32.8969V57.7936H21.4135C22.5904 57.7941 23.5448 58.7483 23.5448 59.9254Z" fill="#FEF2A8"/>
        <path d="M19.0309 47.5092C18 47.5092 17.1615 46.6763 17.1561 45.6441C17.1525 44.9984 17.1484 44.3526 17.1441 43.7069C17.133 42.0631 17.1216 40.3636 17.1261 38.6873C17.1289 37.6536 17.9678 36.8174 19.0009 36.8174H19.0061C20.0415 36.8202 20.8787 37.6619 20.8761 38.6974C20.8718 40.3559 20.883 42.0466 20.8941 43.6816C20.8982 44.3292 20.9027 44.9766 20.9061 45.6243C20.9115 46.6598 20.0766 47.5036 19.041 47.5092C19.0376 47.5092 19.0341 47.5092 19.0309 47.5092Z" fill="white"/>
        <path d="M19.5341 33.5498C19.338 33.5498 19.1387 33.5187 18.9424 33.4535C17.9597 33.1267 17.4281 32.0652 17.7548 31.0825C18.2934 29.4623 19.4029 28.0467 20.9631 26.9885C21.8201 26.4072 22.9858 26.6307 23.5674 27.4878C24.1487 28.3448 23.925 29.5107 23.0681 30.0922C22.4603 30.5043 21.6623 31.2162 21.3133 32.2658C21.0518 33.0522 20.3198 33.5498 19.5341 33.5498Z" fill="white"/>
        <path d="M72.3591 20.709H62.4593C68.1366 20.709 72.739 25.3112 72.739 30.9887V56.9645L74.3993 72.0034C75.1712 78.8147 69.2459 84.8777 61.807 83.844L48.5005 82.4107H21.3167C15.6396 82.4107 11.0372 77.8084 11.0372 72.1311V82.0309C11.0372 88.9558 16.651 94.5695 23.5757 94.5695H72.3591C79.284 94.5695 84.8978 88.9558 84.8978 82.0309V33.2477C84.8978 26.3227 79.284 20.709 72.3591 20.709Z" fill="#8388EF"/>
        <path d="M72.739 30.9889V56.9647C73.1263 57.4978 73.753 57.8456 74.4623 57.8456H84.8978V33.2899C84.8978 26.3417 79.2653 20.709 72.3171 20.709H62.4595C68.1366 20.7092 72.739 25.3115 72.739 30.9889Z" fill="#A7ADF1"/>
        <path d="M84.8978 81.989V57.8457H74.4623C73.753 57.8457 73.1263 57.4979 72.739 56.9648V71.8979C72.739 77.7042 68.0322 82.4108 62.2258 82.4108H48.5005C48.1697 82.7864 47.9676 83.2778 47.9676 83.8175V94.5697H72.3171C79.2651 94.5698 84.8978 88.9373 84.8978 81.989Z" fill="#E893DB"/>
        <path d="M76.2962 81.0398C75.675 81.0398 75.1712 80.5362 75.1712 79.9148V77.7148C75.1712 77.0937 75.675 76.5898 76.2962 76.5898C76.9176 76.5898 77.4212 77.0937 77.4212 77.7148V79.9148C77.4212 80.5362 76.9174 81.0398 76.2962 81.0398Z" fill="#C56CB7"/>
        <path d="M69.2458 70.4827C68.6247 70.4827 68.1208 69.9788 68.1208 69.3577V67.1577C68.1208 66.5363 68.6247 66.0327 69.2458 66.0327C69.867 66.0327 70.3708 66.5363 70.3708 67.1577V69.3577C70.3708 69.9788 69.8672 70.4827 69.2458 70.4827Z" fill="#C56CB7"/>
        <path d="M67.3605 87.6726C66.7393 87.6726 66.2355 87.1688 66.2355 86.5476V84.3477C66.2355 83.7263 66.7393 83.2227 67.3605 83.2227C67.9819 83.2227 68.4855 83.7263 68.4855 84.3477V86.5476C68.4855 87.169 67.9817 87.6726 67.3605 87.6726Z" fill="#C56CB7"/>
        <path d="M7.73064 2.84064L9.34801 7.38846C9.4172 7.58327 9.55445 7.73739 9.72733 7.81539L13.768 9.63583C14.3389 9.89308 14.3389 10.8025 13.768 11.0597L9.72733 12.8801C9.55427 12.9581 9.4172 13.1125 9.34801 13.3071L7.73064 17.8553C7.50208 18.4978 6.69414 18.4978 6.46558 17.8553L4.8482 13.3073C4.77901 13.1126 4.64195 12.9583 4.46889 12.8803L0.428264 11.0599C-0.142673 10.8026 -0.142673 9.89308 0.428264 9.63602L4.46889 7.81558C4.64195 7.73758 4.77901 7.58327 4.8482 7.38864L6.46558 2.84083C6.69414 2.19827 7.50226 2.19827 7.73064 2.84064Z" fill="#B2E7F1"/>
        <path d="M95.9273 20.5118C96.296 18.5964 95.0421 16.7448 93.1267 16.3762C91.2112 16.0075 89.3596 17.2614 88.991 19.1768C88.6223 21.0923 89.8762 22.9439 91.7917 23.3125C93.7071 23.6812 95.5587 22.4273 95.9273 20.5118Z" fill="#8BB6EF"/>
        <path d="M25.4511 2.94588C25.4511 3.77182 24.7815 4.44157 23.9554 4.44157C23.1293 4.44157 22.4597 3.77201 22.4597 2.94588C22.4597 2.11995 23.1293 1.4502 23.9554 1.4502C24.7815 1.45038 25.4511 2.11995 25.4511 2.94588Z" fill="#8BB6EF"/>
        <path d="M76.7822 1.78813L77.982 5.16163C78.0334 5.30601 78.135 5.42057 78.2634 5.47832L81.2608 6.82869C81.6842 7.01957 81.6842 7.69419 81.2608 7.88488L78.2634 9.23526C78.1352 9.29301 78.0334 9.40757 77.982 9.55194L76.7822 12.9254C76.6127 13.4021 76.0133 13.4021 75.8438 12.9254L74.644 9.55194C74.5926 9.40757 74.491 9.29301 74.3625 9.23526L71.3651 7.88488C70.9418 7.69401 70.9418 7.01938 71.3651 6.82869L74.3625 5.47832C74.491 5.42057 74.5926 5.30601 74.644 5.16163L75.8438 1.78813C76.0133 1.31151 76.6127 1.31151 76.7822 1.78813Z" fill="#B2E7F1"/>
    </g>
    <defs>
        <clipPath id="clip0_3960_246154">
            <rect width="96" height="96" fill="white"/>
        </clipPath>
    </defs>
</svg>
