<svg width="140" height="64" fill="none" xmlns="http://www.w3.org/2000/svg"><path d="m9.473 52.31.164 1.125.24-1.013 1.688-5.953h.949l1.646 5.953.235 1.031.181-1.148 1.324-5.836h1.131L14.963 55h-1.025l-1.758-6.217-.135-.65-.135.65L10.088 55H9.063L7 46.469h1.125l1.348 5.841ZM21.83 55c-.062-.125-.113-.348-.152-.668-.504.523-1.106.785-1.805.785-.625 0-1.139-.176-1.541-.527a1.728 1.728 0 0 1-.598-1.348c0-.66.25-1.172.75-1.535.504-.367 1.211-.55 2.121-.55h1.055v-.499c0-.379-.113-.68-.34-.902-.226-.227-.56-.34-1.002-.34-.386 0-.71.098-.972.293-.262.195-.393.432-.393.709h-1.09c0-.316.112-.621.334-.914.227-.297.532-.531.914-.703.387-.172.81-.258 1.272-.258.73 0 1.303.184 1.717.55.414.364.628.866.644 1.507v2.918c0 .582.074 1.044.223 1.388V55H21.83Zm-1.799-.826c.34 0 .662-.088.967-.264.305-.176.525-.404.662-.685v-1.301h-.85c-1.328 0-1.992.389-1.992 1.166 0 .34.114.605.34.797.227.191.518.287.873.287ZM25.621 55h-1.084v-9h1.084v9ZM28.54 55h-1.085v-9h1.084v9ZM32.91 55.117c-.86 0-1.558-.281-2.097-.844-.54-.566-.81-1.322-.81-2.267v-.2c0-.628.12-1.189.358-1.681a2.816 2.816 0 0 1 1.008-1.16 2.536 2.536 0 0 1 1.406-.422c.825 0 1.465.272 1.922.814.457.543.686 1.32.686 2.333v.45h-4.295c.015.626.197 1.132.545 1.518.351.383.797.574 1.336.574.383 0 .707-.078.972-.234.266-.156.498-.363.698-.621l.662.516c-.532.816-1.328 1.224-2.39 1.224Zm-.135-5.683c-.437 0-.804.16-1.101.48-.297.316-.48.762-.551 1.336h3.176v-.082c-.031-.55-.18-.977-.446-1.277-.265-.305-.625-.457-1.078-.457ZM38.113 47.125v1.535h1.184v.838h-1.184v3.932c0 .254.053.445.159.574.105.125.285.187.538.187.125 0 .297-.023.516-.07V55a3.144 3.144 0 0 1-.832.117c-.484 0-.85-.146-1.096-.44-.246-.292-.369-.708-.369-1.247v-3.932h-1.154v-.838h1.154v-1.535h1.084Z" fill="#040B1D"/><path fill-rule="evenodd" clip-rule="evenodd" d="M77.804 39.95c0 .49.445.858.913.732 7.618-2.04 13.237-9.122 13.237-17.545C91.954 13.12 84.005 5 74.2 5c-9.806 0-17.755 8.12-17.755 18.137 0 8.616 5.881 15.829 13.766 17.678.463.109.892-.257.892-.738V35.78a.801.801 0 0 0-.554-.757c-2.497-.822-4.517-2.278-6.059-4.366-1.643-2.242-2.465-4.839-2.465-7.792 0-3.901 1.435-7.097 4.305-9.588 2.384-2.063 5.097-3.095 8.14-3.095 3.924 0 7.089 1.453 9.496 4.358 1.944 2.348 2.916 5.058 2.916 8.13 0 3.012-.862 5.71-2.587 8.093-1.446 2.013-3.425 3.433-5.938 4.26a.8.8 0 0 0-.553.756v4.17Zm-.226-14.354a.769.769 0 0 0-.764-.774H72.11a.769.769 0 0 0-.763.774v.294c0 .656-.735.981-1.101.44-.655-.967-.982-2.11-.982-3.43 0-1.505.514-2.81 1.544-3.913 1.03-1.102 2.251-1.654 3.663-1.654 1.4 0 2.615.552 3.645 1.654 1.03 1.103 1.545 2.408 1.545 3.914 0 1.279-.324 2.406-.97 3.381-.366.55-1.113.229-1.113-.435v-.25Z" fill="#15ADFF"/><path d="M7 16.288c0-.428.342-.774.764-.774h6.198c.421 0 .763.346.763.774V26.71c0 .488.106.873.318 1.156.212.276.472.413.78.413.315 0 .63-.148.944-.445.321-.304.482-.679.482-1.124V16.288c0-.428.342-.774.764-.774h6.29c.422 0 .764.346.764.774v10.73c0 1.775-.442 3.313-1.324 4.613a8.33 8.33 0 0 1-3.447 2.948 10.404 10.404 0 0 1-4.473.997c-1.115 0-2.202-.18-3.263-.541a8.744 8.744 0 0 1-2.852-1.633c-.834-.728-1.494-1.63-1.98-2.704-.485-1.075-.728-2.3-.728-3.68v-10.73ZM27.65 34.453a.769.769 0 0 1-.763-.774V22.068c0-1.562.42-2.898 1.261-4.008.849-1.117 1.967-1.958 3.355-2.524a11.582 11.582 0 0 1 4.412-.848c1.586 0 3.095.297 4.524.89 1.436.587 2.596 1.467 3.478 2.64.889 1.174 1.334 2.56 1.334 4.157V33.68a.769.769 0 0 1-.764.774h-6.588a.769.769 0 0 1-.764-.774V22.895c0-.424-.116-.739-.348-.944a1.105 1.105 0 0 0-.78-.318c-.328 0-.643.127-.944.382-.3.247-.451.54-.451.88v10.784a.769.769 0 0 1-.764.774H27.65ZM47.824 34.453a.769.769 0 0 1-.764-.774V15.685c0-.428.342-.774.764-.774h6.506c.421 0 .763.346.763.774v17.994a.769.769 0 0 1-.763.774h-6.506ZM93.454 16.288c0-.428.342-.774.764-.774h6.198c.421 0 .763.346.763.774V26.71c0 .488.106.873.318 1.156.212.276.472.413.78.413.315 0 .629-.148.944-.445.321-.304.482-.679.482-1.124V16.288a.77.77 0 0 1 .764-.774h6.29a.77.77 0 0 1 .764.774v10.73c0 1.775-.442 3.313-1.324 4.613a8.324 8.324 0 0 1-3.447 2.948 10.405 10.405 0 0 1-4.473.997c-1.115 0-2.202-.18-3.263-.541a8.745 8.745 0 0 1-2.852-1.633c-.834-.728-1.494-1.63-1.98-2.704-.485-1.075-.728-2.3-.728-3.68v-10.73ZM132.666 21.439a.757.757 0 0 1-.329.954l-8.329 4.698a.757.757 0 0 1-1.034-.293l-1.226-2.179a.78.78 0 0 1 .297-1.063l2.345-1.302c.443-.246.514-.863.03-1.015a2.497 2.497 0 0 0-.751-.11c-.846 0-1.692.393-2.539 1.147-.175.15-.963.754-1.196 1.387a1.724 1.724 0 0 0-.088.905c.029.272.817 2.473 1.489 3.258.7.814 1.488 1.206 2.422 1.206 1.356 0 2.828-.77 4.355-2.312a.787.787 0 0 1 1.115-.02l3.241 3.211c.262.26.308.674.083.969-.62.814-1.394 1.545-2.287 2.194a13.47 13.47 0 0 1-3.531 1.78c-1.255.391-2.509.602-3.764.602s-2.422-.21-3.56-.603a8.841 8.841 0 0 1-3.094-1.84c-.934-.814-1.663-1.87-2.247-3.136a12.435 12.435 0 0 1-1.05-4.374v-.512c0-2.202.496-4.102 1.459-5.67.963-1.57 2.218-2.776 3.706-3.56 1.517-.784 3.035-1.206 4.581-1.206 4.638 0 7.939 2.294 9.902 6.884Z" fill="#040B1D"/></svg>