<svg width="140" height="64" viewBox="0 0 140 64" fill="none" xmlns="http://www.w3.org/2000/svg">
  <path d="M7 55.2812V46.75H9.78906C10.7148 46.75 11.4102 46.9414 11.875 47.3242C12.3438 47.707 12.5781 48.2734 12.5781 49.0234C12.5781 49.4219 12.4648 49.7754 12.2383 50.084C12.0117 50.3887 11.7031 50.625 11.3125 50.793C11.7734 50.9219 12.1367 51.168 12.4023 51.5312C12.6719 51.8906 12.8066 52.3203 12.8066 52.8203C12.8066 53.5859 12.5586 54.1875 12.0625 54.625C11.5664 55.0625 10.8652 55.2812 9.95898 55.2812H7ZM8.125 51.291V54.3613H9.98242C10.5059 54.3613 10.918 54.2266 11.2188 53.957C11.5234 53.6836 11.6758 53.3086 11.6758 52.832C11.6758 51.8047 11.1172 51.291 10 51.291H8.125ZM8.125 50.3887H9.82422C10.3164 50.3887 10.709 50.2656 11.002 50.0195C11.2988 49.7734 11.4473 49.4395 11.4473 49.0176C11.4473 48.5488 11.3105 48.209 11.0371 47.998C10.7637 47.7832 10.3477 47.6758 9.78906 47.6758H8.125V50.3887Z" fill="#040B1D"/>
  <path d="M15.4844 55.2812H14.4004V46.2812H15.4844V55.2812Z" fill="#040B1D"/>
  <path d="M16.9375 52.0527C16.9375 51.4316 17.0586 50.873 17.3008 50.377C17.5469 49.8809 17.8867 49.498 18.3203 49.2285C18.7578 48.959 19.2559 48.8242 19.8145 48.8242C20.6777 48.8242 21.375 49.123 21.9062 49.7207C22.4414 50.3184 22.709 51.1133 22.709 52.1055V52.1816C22.709 52.7988 22.5898 53.3535 22.3516 53.8457C22.1172 54.334 21.7793 54.7148 21.3379 54.9883C20.9004 55.2617 20.3965 55.3984 19.8262 55.3984C18.9668 55.3984 18.2695 55.0996 17.7344 54.502C17.2031 53.9043 16.9375 53.1133 16.9375 52.1289V52.0527ZM18.0273 52.1816C18.0273 52.8848 18.1895 53.4492 18.5137 53.875C18.8418 54.3008 19.2793 54.5137 19.8262 54.5137C20.377 54.5137 20.8145 54.2988 21.1387 53.8691C21.4629 53.4355 21.625 52.8301 21.625 52.0527C21.625 51.3574 21.459 50.7949 21.127 50.3652C20.7988 49.9316 20.3613 49.7148 19.8145 49.7148C19.2793 49.7148 18.8477 49.9277 18.5195 50.3535C18.1914 50.7793 18.0273 51.3887 18.0273 52.1816Z" fill="#040B1D"/>
  <path d="M26.6113 54.5137C26.998 54.5137 27.3359 54.3965 27.625 54.1621C27.9141 53.9277 28.0742 53.6348 28.1055 53.2832H29.1309C29.1113 53.6465 28.9863 53.9922 28.7559 54.3203C28.5254 54.6484 28.2168 54.9102 27.8301 55.1055C27.4473 55.3008 27.041 55.3984 26.6113 55.3984C25.748 55.3984 25.0605 55.1113 24.5488 54.5371C24.041 53.959 23.7871 53.1699 23.7871 52.1699V51.9883C23.7871 51.3711 23.9004 50.8223 24.127 50.3418C24.3535 49.8613 24.6777 49.4883 25.0996 49.2227C25.5254 48.957 26.0273 48.8242 26.6055 48.8242C27.3164 48.8242 27.9062 49.0371 28.375 49.4629C28.8477 49.8887 29.0996 50.4414 29.1309 51.1211H28.1055C28.0742 50.7109 27.918 50.375 27.6367 50.1133C27.3594 49.8477 27.0156 49.7148 26.6055 49.7148C26.0547 49.7148 25.627 49.9141 25.3223 50.3125C25.0215 50.707 24.8711 51.2793 24.8711 52.0293V52.2344C24.8711 52.9648 25.0215 53.5273 25.3223 53.9219C25.623 54.3164 26.0527 54.5137 26.6113 54.5137Z" fill="#040B1D"/>
  <path d="M32.1191 52.3457L31.4395 53.0547V55.2812H30.3555V46.2812H31.4395V51.7246L32.0195 51.0273L33.9941 48.9414H35.3125L32.8457 51.5898L35.5996 55.2812H34.3281L32.1191 52.3457Z" fill="#040B1D"/>
  <path d="M42.0391 55.3984C41.1797 55.3984 40.4805 55.1172 39.9414 54.5547C39.4023 53.9883 39.1328 53.2324 39.1328 52.2871V52.0879C39.1328 51.459 39.252 50.8984 39.4902 50.4062C39.7324 49.9102 40.0684 49.5234 40.498 49.2461C40.9316 48.9648 41.4004 48.8242 41.9043 48.8242C42.7285 48.8242 43.3691 49.0957 43.8262 49.6387C44.2832 50.1816 44.5117 50.959 44.5117 51.9707V52.4219H40.2168C40.2324 53.0469 40.4141 53.5527 40.7617 53.9395C41.1133 54.3223 41.5586 54.5137 42.0977 54.5137C42.4805 54.5137 42.8047 54.4355 43.0703 54.2793C43.3359 54.123 43.5684 53.916 43.7676 53.6582L44.4297 54.1738C43.8984 54.9902 43.1016 55.3984 42.0391 55.3984ZM41.9043 49.7148C41.4668 49.7148 41.0996 49.875 40.8027 50.1953C40.5059 50.5117 40.3223 50.957 40.252 51.5312H43.4277V51.4492C43.3965 50.8984 43.248 50.4727 42.9824 50.1719C42.7168 49.8672 42.3574 49.7148 41.9043 49.7148Z" fill="#040B1D"/>
  <path d="M47.8984 51.2559L49.3047 48.9414H50.5703L48.4961 52.0762L50.6348 55.2812H49.3809L47.916 52.9082L46.4512 55.2812H45.1914L47.3301 52.0762L45.2559 48.9414H46.5098L47.8984 51.2559Z" fill="#040B1D"/>
  <path d="M57.0801 52.1816C57.0801 53.1465 56.8594 53.9238 56.418 54.5137C55.9766 55.1035 55.3789 55.3984 54.625 55.3984C53.8555 55.3984 53.25 55.1543 52.8086 54.666V57.7188H51.7246V48.9414H52.7148L52.7676 49.6445C53.209 49.0977 53.8223 48.8242 54.6074 48.8242C55.3691 48.8242 55.9707 49.1113 56.4121 49.6855C56.8574 50.2598 57.0801 51.0586 57.0801 52.082V52.1816ZM55.9961 52.0586C55.9961 51.3438 55.8438 50.7793 55.5391 50.3652C55.2344 49.9512 54.8164 49.7441 54.2852 49.7441C53.6289 49.7441 53.1367 50.0352 52.8086 50.6172V53.6465C53.1328 54.2246 53.6289 54.5137 54.2969 54.5137C54.8164 54.5137 55.2285 54.3086 55.5332 53.8984C55.8418 53.4844 55.9961 52.8711 55.9961 52.0586Z" fill="#040B1D"/>
  <path d="M59.6406 55.2812H58.5566V46.2812H59.6406V55.2812Z" fill="#040B1D"/>
  <path d="M61.0938 52.0527C61.0938 51.4316 61.2148 50.873 61.457 50.377C61.7031 49.8809 62.043 49.498 62.4766 49.2285C62.9141 48.959 63.4121 48.8242 63.9707 48.8242C64.834 48.8242 65.5312 49.123 66.0625 49.7207C66.5977 50.3184 66.8652 51.1133 66.8652 52.1055V52.1816C66.8652 52.7988 66.7461 53.3535 66.5078 53.8457C66.2734 54.334 65.9355 54.7148 65.4941 54.9883C65.0566 55.2617 64.5527 55.3984 63.9824 55.3984C63.123 55.3984 62.4258 55.0996 61.8906 54.502C61.3594 53.9043 61.0938 53.1133 61.0938 52.1289V52.0527ZM62.1836 52.1816C62.1836 52.8848 62.3457 53.4492 62.6699 53.875C62.998 54.3008 63.4355 54.5137 63.9824 54.5137C64.5332 54.5137 64.9707 54.2988 65.2949 53.8691C65.6191 53.4355 65.7812 52.8301 65.7812 52.0527C65.7812 51.3574 65.6152 50.7949 65.2832 50.3652C64.9551 49.9316 64.5176 49.7148 63.9707 49.7148C63.4355 49.7148 63.0039 49.9277 62.6758 50.3535C62.3477 50.7793 62.1836 51.3887 62.1836 52.1816Z" fill="#040B1D"/>
  <path d="M71.2891 49.9141C71.125 49.8867 70.9473 49.873 70.7559 49.873C70.0449 49.873 69.5625 50.1758 69.3086 50.7812V55.2812H68.2246V48.9414H69.2793L69.2969 49.6738C69.6523 49.1074 70.1562 48.8242 70.8086 48.8242C71.0195 48.8242 71.1797 48.8516 71.2891 48.9062V49.9141Z" fill="#040B1D"/>
  <path d="M74.8047 55.3984C73.9453 55.3984 73.2461 55.1172 72.707 54.5547C72.168 53.9883 71.8984 53.2324 71.8984 52.2871V52.0879C71.8984 51.459 72.0176 50.8984 72.2559 50.4062C72.498 49.9102 72.834 49.5234 73.2637 49.2461C73.6973 48.9648 74.166 48.8242 74.6699 48.8242C75.4941 48.8242 76.1348 49.0957 76.5918 49.6387C77.0488 50.1816 77.2773 50.959 77.2773 51.9707V52.4219H72.9824C72.998 53.0469 73.1797 53.5527 73.5273 53.9395C73.8789 54.3223 74.3242 54.5137 74.8633 54.5137C75.2461 54.5137 75.5703 54.4355 75.8359 54.2793C76.1016 54.123 76.334 53.916 76.5332 53.6582L77.1953 54.1738C76.6641 54.9902 75.8672 55.3984 74.8047 55.3984ZM74.6699 49.7148C74.2324 49.7148 73.8652 49.875 73.5684 50.1953C73.2715 50.5117 73.0879 50.957 73.0176 51.5312H76.1934V51.4492C76.1621 50.8984 76.0137 50.4727 75.748 50.1719C75.4824 49.8672 75.123 49.7148 74.6699 49.7148Z" fill="#040B1D"/>
  <path d="M81.6016 49.9141C81.4375 49.8867 81.2598 49.873 81.0684 49.873C80.3574 49.873 79.875 50.1758 79.6211 50.7812V55.2812H78.5371V48.9414H79.5918L79.6094 49.6738C79.9648 49.1074 80.4688 48.8242 81.1211 48.8242C81.332 48.8242 81.4922 48.8516 81.6016 48.9062V49.9141Z" fill="#040B1D"/>
  <path d="M90.9688 52.3418C90.9688 53.3105 90.7461 54.0898 90.3008 54.6797C89.8555 55.2656 89.2578 55.5586 88.5078 55.5586C87.707 55.5586 87.0879 55.2754 86.6504 54.709L86.5977 55.4414H85.6016V46.4414H86.6855V49.7988C87.123 49.2559 87.7266 48.9844 88.4961 48.9844C89.2656 48.9844 89.8691 49.2754 90.3066 49.8574C90.748 50.4395 90.9688 51.2363 90.9688 52.248V52.3418ZM89.8848 52.2188C89.8848 51.4805 89.7422 50.9102 89.457 50.5078C89.1719 50.1055 88.7617 49.9043 88.2266 49.9043C87.5117 49.9043 86.998 50.2363 86.6855 50.9004V53.6426C87.0176 54.3066 87.5352 54.6387 88.2383 54.6387C88.7578 54.6387 89.1621 54.4375 89.4512 54.0352C89.7402 53.6328 89.8848 53.0273 89.8848 52.2188Z" fill="#7F90A1"/>
  <path d="M94.9707 55.5586C94.1113 55.5586 93.4121 55.2773 92.873 54.7148C92.334 54.1484 92.0645 53.3926 92.0645 52.4473V52.248C92.0645 51.6191 92.1836 51.0586 92.4219 50.5664C92.6641 50.0703 93 49.6836 93.4297 49.4062C93.8633 49.125 94.332 48.9844 94.8359 48.9844C95.6602 48.9844 96.3008 49.2559 96.7578 49.7988C97.2148 50.3418 97.4434 51.1191 97.4434 52.1309V52.582H93.1484C93.1641 53.207 93.3457 53.7129 93.6934 54.0996C94.0449 54.4824 94.4902 54.6738 95.0293 54.6738C95.4121 54.6738 95.7363 54.5957 96.002 54.4395C96.2676 54.2832 96.5 54.0762 96.6992 53.8184L97.3613 54.334C96.8301 55.1504 96.0332 55.5586 94.9707 55.5586ZM94.8359 49.875C94.3984 49.875 94.0312 50.0352 93.7344 50.3555C93.4375 50.6719 93.2539 51.1172 93.1836 51.6914H96.3594V51.6094C96.3281 51.0586 96.1797 50.6328 95.9141 50.332C95.6484 50.0273 95.2891 49.875 94.8359 49.875Z" fill="#7F90A1"/>
  <path d="M100.174 47.5664V49.1016H101.357V49.9395H100.174V53.8711C100.174 54.125 100.227 54.3164 100.332 54.4453C100.438 54.5703 100.617 54.6328 100.871 54.6328C100.996 54.6328 101.168 54.6094 101.387 54.5625V55.4414C101.102 55.5195 100.824 55.5586 100.555 55.5586C100.07 55.5586 99.7051 55.4121 99.459 55.1191C99.2129 54.8262 99.0898 54.4102 99.0898 53.8711V49.9395H97.9355V49.1016H99.0898V47.5664H100.174Z" fill="#7F90A1"/>
  <path d="M106.543 55.4414C106.48 55.3164 106.43 55.0938 106.391 54.7734C105.887 55.2969 105.285 55.5586 104.586 55.5586C103.961 55.5586 103.447 55.3828 103.045 55.0312C102.646 54.6758 102.447 54.2266 102.447 53.6836C102.447 53.0234 102.697 52.5117 103.197 52.1484C103.701 51.7812 104.408 51.5977 105.318 51.5977H106.373V51.0996C106.373 50.7207 106.26 50.4199 106.033 50.1973C105.807 49.9707 105.473 49.8574 105.031 49.8574C104.645 49.8574 104.32 49.9551 104.059 50.1504C103.797 50.3457 103.666 50.582 103.666 50.8594H102.576C102.576 50.543 102.688 50.2383 102.91 49.9453C103.137 49.6484 103.441 49.4141 103.824 49.2422C104.211 49.0703 104.635 48.9844 105.096 48.9844C105.826 48.9844 106.398 49.168 106.812 49.5352C107.227 49.8984 107.441 50.4004 107.457 51.041V53.959C107.457 54.541 107.531 55.0039 107.68 55.3477V55.4414H106.543ZM104.744 54.6152C105.084 54.6152 105.406 54.5273 105.711 54.3516C106.016 54.1758 106.236 53.9473 106.373 53.666V52.3652H105.523C104.195 52.3652 103.531 52.7539 103.531 53.5312C103.531 53.8711 103.645 54.1367 103.871 54.3281C104.098 54.5195 104.389 54.6152 104.744 54.6152Z" fill="#7F90A1"/>
  <path fill-rule="evenodd" clip-rule="evenodd" d="M77.8036 39.9494C77.8036 40.4404 78.2493 40.8079 78.7174 40.6825C86.335 38.6411 91.9544 31.5597 91.9544 23.1374C91.9544 13.1204 84.0054 5 74.1999 5C64.3943 5 56.4453 13.1204 56.4453 23.1374C56.4453 31.7533 62.3261 38.966 70.2108 40.8153C70.6736 40.9238 71.1035 40.5582 71.1035 40.0765V35.7796C71.1035 35.4325 70.8748 35.1299 70.5492 35.0228C68.0521 34.2008 66.0324 32.7454 64.4902 30.6566C62.847 28.4152 62.0254 25.8181 62.0254 22.8652C62.0254 18.9637 63.4603 15.7677 66.3301 13.2773C68.7139 11.2138 71.4275 10.1821 74.4709 10.1821C78.3938 10.1821 81.5587 11.6348 83.9656 14.5403C85.9097 16.8883 86.8817 19.5981 86.8817 22.6696C86.8817 25.6817 86.0196 28.3796 84.2954 30.7633C82.8493 32.7761 80.8698 34.1959 78.3569 35.0226C78.0317 35.1296 77.8036 35.432 77.8036 35.7786V39.9494ZM77.578 25.5962C77.578 25.1686 77.2361 24.822 76.8143 24.822H72.1102C71.6884 24.822 71.3465 25.1686 71.3465 25.5962V25.8899C71.3465 26.5464 70.6123 26.8714 70.2458 26.3301C69.591 25.3632 69.2636 24.2201 69.2636 22.9008C69.2636 21.3947 69.7785 20.0903 70.8084 18.9874C71.8383 17.8845 73.0592 17.3331 74.4709 17.3331C75.8711 17.3331 77.0862 17.8845 78.1161 18.9874C79.146 20.0903 79.6609 21.3947 79.6609 22.9008C79.6609 24.18 79.3373 25.3071 78.6902 26.2823C78.3248 26.8329 77.578 26.5105 77.578 25.8469V25.5962Z" fill="#15ADFF"/>
  <path d="M7 16.2881C7 15.8605 7.34189 15.5139 7.76364 15.5139H13.9616C14.3833 15.5139 14.7252 15.8605 14.7252 16.2881V26.7113C14.7252 27.199 14.8312 27.5843 15.0432 27.867C15.2553 28.1427 15.5152 28.2806 15.823 28.2806C16.1376 28.2806 16.4522 28.1321 16.7668 27.8352C17.0883 27.5313 17.249 27.1566 17.249 26.7113V16.2881C17.249 15.8605 17.5909 15.5139 18.0126 15.5139H24.3029C24.7246 15.5139 25.0665 15.8605 25.0665 16.2881V27.0188C25.0665 28.7931 24.6254 30.3306 23.7431 31.6313C22.8676 32.932 21.7186 33.9146 20.296 34.5791C18.8802 35.2436 17.3892 35.5758 15.823 35.5758C14.7081 35.5758 13.6206 35.3956 12.5605 35.0351C11.5004 34.6675 10.5497 34.1232 9.70844 33.4021C8.87402 32.674 8.21401 31.7727 7.72841 30.6982C7.2428 29.6237 7 28.3972 7 27.0188V16.2881Z" fill="#040B1D"/>
  <path d="M27.6502 34.453C27.2284 34.453 26.8865 34.1064 26.8865 33.6788V22.0681C26.8865 20.5058 27.3072 19.1698 28.1484 18.0599C28.9965 16.943 30.1148 16.1018 31.5032 15.5363C32.8916 14.9707 34.3621 14.688 35.9147 14.688C37.5014 14.688 39.0095 14.9849 40.439 15.5787C41.8753 16.1654 43.0346 17.0455 43.9169 18.219C44.806 19.3924 45.2506 20.778 45.2506 22.3756V33.6788C45.2506 34.1064 44.9087 34.453 44.4869 34.453H37.8991C37.4774 34.453 37.1355 34.1064 37.1355 33.6788V22.8951C37.1355 22.471 37.0192 22.1564 36.7867 21.9514C36.561 21.7394 36.3011 21.6333 36.007 21.6333C35.6787 21.6333 35.3641 21.7606 35.0631 22.015C34.7622 22.2625 34.6117 22.5558 34.6117 22.8951V33.6788C34.6117 34.1064 34.2698 34.453 33.8481 34.453H27.6502Z" fill="#040B1D"/>
  <path d="M47.8239 34.453C47.4022 34.453 47.0603 34.1064 47.0603 33.6788V15.6848C47.0603 15.2573 47.4022 14.9106 47.8239 14.9106H54.3297C54.7514 14.9106 55.0933 15.2573 55.0933 15.6848V33.6788C55.0933 34.1064 54.7514 34.453 54.3297 34.453H47.8239Z" fill="#040B1D"/>
  <path d="M93.454 16.2881C93.454 15.8605 93.7959 15.5139 94.2176 15.5139H100.416C100.837 15.5139 101.179 15.8605 101.179 16.2881V26.7113C101.179 27.199 101.285 27.5843 101.497 27.867C101.709 28.1427 101.969 28.2806 102.277 28.2806C102.592 28.2806 102.906 28.1321 103.221 27.8352C103.542 27.5313 103.703 27.1566 103.703 26.7113V16.2881C103.703 15.8605 104.045 15.5139 104.467 15.5139H110.757C111.179 15.5139 111.521 15.8605 111.521 16.2881V27.0188C111.521 28.7931 111.079 30.3306 110.197 31.6313C109.322 32.932 108.173 33.9146 106.75 34.5791C105.334 35.2436 103.843 35.5758 102.277 35.5758C101.162 35.5758 100.075 35.3956 99.0145 35.0351C97.9544 34.6675 97.0037 34.1232 96.1624 33.4021C95.328 32.674 94.668 31.7727 94.1824 30.6982C93.6968 29.6237 93.454 28.3972 93.454 27.0188V16.2881Z" fill="#040B1D"/>
  <path d="M132.666 21.4392C132.818 21.7943 132.671 22.2053 132.337 22.3934L124.008 27.0914C123.643 27.2977 123.181 27.167 122.974 26.7983L121.748 24.6191C121.537 24.2432 121.671 23.7646 122.045 23.5567L124.39 22.2546C124.833 22.0081 124.904 21.3913 124.42 21.2395C124.188 21.1665 123.936 21.13 123.669 21.13C122.823 21.13 121.977 21.5221 121.13 22.2761C120.955 22.4269 120.167 23.0302 119.934 23.6635C119.788 24.0255 119.817 24.3573 119.846 24.5684C119.875 24.8398 120.663 27.0416 121.335 27.8258C122.035 28.6402 122.823 29.0323 123.757 29.0323C125.113 29.0323 126.585 28.2616 128.112 26.7202C128.419 26.4102 128.917 26.3923 129.227 26.6994L132.468 29.9115C132.73 30.1714 132.776 30.5857 132.551 30.8798C131.931 31.6937 131.157 32.4251 130.264 33.0739C129.155 33.8581 127.988 34.4311 126.733 34.8534C125.478 35.2455 124.224 35.4566 122.969 35.4566C121.714 35.4566 120.547 35.2455 119.409 34.8534C118.27 34.4613 117.249 33.8581 116.315 33.0135C115.381 32.1992 114.652 31.1435 114.068 29.8768C113.514 28.61 113.105 27.1623 113.018 25.5034C113.018 25.4129 113.018 25.3827 113.018 25.2319C113.018 25.0811 113.018 24.9906 113.018 24.9906C113.018 22.7889 113.514 20.8887 114.477 19.3203C115.44 17.7519 116.695 16.5455 118.183 15.7613C119.7 14.9771 121.218 14.5548 122.764 14.5548C127.402 14.5548 130.703 16.8496 132.666 21.4392Z" fill="#040B1D"/>
</svg>
