<svg viewBox="0 0 112 159" fill="none" xmlns="http://www.w3.org/2000/svg" color="#ABB6C1"><path d="M33.563.5 0 33.643V158.5h112V.5H33.562ZM32 9.49V32.1H9.104L32 9.49Zm74.667 143.743H5.333V37.367h32v-31.6h69.334v147.466Z" fill="currentColor"/><path d="m42.208 63.059-7.542 7.45-7.542-7.45-3.77 3.724 7.541 7.45-7.541 7.45 3.77 3.723 7.542-7.45 7.542 7.45 3.77-3.724-7.541-7.45 7.541-7.45-3.77-3.723ZM67.124 85.406l7.542-7.45 7.542 7.45 3.77-3.724-7.541-7.45 7.541-7.45-3.77-3.723-7.542 7.45-7.542-7.45-3.77 3.724 7.541 7.45-7.541 7.45 3.77 3.723ZM32.78 109.238l3.771 3.723 2.478-2.447c9.379-9.237 24.561-9.237 33.94 0l2.478 2.447 3.77-3.723-2.477-2.447c-11.462-11.293-30.02-11.293-41.482 0l-2.478 2.447Z" fill="currentColor"/></svg>