<svg id="svg" version="1.1" xmlns="http://www.w3.org/2000/svg" xmlns:xlink="http://www.w3.org/1999/xlink" width="400" height="400" viewBox="0, 0, 400,400"><g id="svgg"><path id="path0" d="M180.714 27.854 L 180.714 32.143 189.048 32.143 L 197.381 32.143 197.381 36.190 L 197.381 40.238 201.667 40.238 L 205.952 40.238 205.952 36.190 L 205.952 32.143 214.286 32.143 L 222.619 32.143 222.619 44.762 L 222.619 57.381 218.452 57.381 L 214.286 57.381 214.286 61.548 L 214.286 65.714 218.452 65.714 L 222.619 65.714 222.619 61.548 L 222.619 57.381 226.786 57.381 L 230.952 57.381 230.952 44.762 L 230.952 32.143 226.905 32.143 L 222.857 32.143 222.857 27.857 L 222.857 23.571 214.405 23.571 L 205.952 23.571 205.952 27.619 L 205.952 31.667 201.791 31.667 L 197.631 31.667 197.565 27.679 L 197.500 23.690 189.107 23.628 L 180.714 23.565 180.714 27.854 M172.381 44.756 L 172.381 57.381 176.548 57.381 L 180.714 57.381 180.714 61.553 L 180.714 65.725 184.940 65.660 L 189.167 65.595 189.232 61.488 L 189.297 57.381 185.008 57.381 L 180.718 57.381 180.657 44.821 L 180.595 32.262 176.488 32.197 L 172.381 32.132 172.381 44.756 M189.206 65.873 C 189.119 65.960,189.048 67.889,189.048 70.159 L 189.048 74.286 193.214 74.286 L 197.381 74.286 197.381 78.452 L 197.381 82.619 201.661 82.619 L 205.941 82.619 206.006 78.512 L 206.071 74.405 210.184 74.340 L 214.297 74.274 214.232 70.054 L 214.167 65.833 210.000 65.833 L 205.833 65.833 205.768 70.060 L 205.703 74.286 201.661 74.286 L 197.619 74.286 197.619 70.000 L 197.619 65.714 193.492 65.714 C 191.222 65.714,189.294 65.786,189.206 65.873 M146.190 85.595 L 146.190 89.762 163.095 89.762 L 180.000 89.762 180.000 94.048 L 180.000 98.333 184.286 98.333 L 188.571 98.333 188.571 102.619 L 188.571 106.905 192.857 106.905 L 197.143 106.905 197.143 119.167 L 197.143 131.429 192.976 131.429 L 188.810 131.429 188.810 127.143 L 188.810 122.857 184.648 122.857 L 180.487 122.857 180.422 118.750 L 180.357 114.643 176.190 114.643 L 172.024 114.643 172.024 118.929 L 172.024 123.214 176.250 123.279 L 180.476 123.344 180.476 127.386 L 180.476 131.429 184.643 131.429 L 188.810 131.429 188.810 135.714 L 188.810 140.000 192.976 140.000 L 197.143 140.000 197.143 153.214 L 197.143 166.429 192.976 166.429 L 188.810 166.429 188.810 162.143 L 188.810 157.857 184.524 157.857 L 180.238 157.857 180.238 162.143 L 180.238 166.429 184.524 166.429 L 188.810 166.429 188.810 170.714 L 188.810 175.000 192.976 175.000 L 197.143 175.000 197.143 185.238 L 197.143 195.476 201.548 195.476 L 205.952 195.476 205.952 185.238 L 205.952 175.000 210.119 175.000 L 214.286 175.000 214.286 170.714 L 214.286 166.429 218.571 166.429 L 222.857 166.429 222.857 162.143 L 222.857 157.857 218.571 157.857 L 214.286 157.857 214.286 162.143 L 214.286 166.429 210.119 166.429 L 205.952 166.429 205.952 153.214 L 205.952 140.000 210.000 140.000 L 214.048 140.000 214.048 135.714 L 214.048 131.429 218.333 131.429 L 222.619 131.429 222.619 127.381 L 222.619 123.333 226.786 123.333 L 230.952 123.333 230.952 118.929 L 230.952 114.524 226.786 114.524 L 222.619 114.524 222.619 118.685 L 222.619 122.846 218.393 122.911 L 214.167 122.976 214.102 127.202 L 214.037 131.429 209.997 131.429 L 205.957 131.429 205.895 119.226 L 205.833 107.024 201.488 106.959 L 197.143 106.894 197.143 102.614 L 197.143 98.333 192.863 98.333 L 188.582 98.333 188.517 94.107 L 188.452 89.881 184.226 89.816 L 180.000 89.751 180.000 85.590 L 180.000 81.429 163.095 81.429 L 146.190 81.429 146.190 85.595 M222.857 85.590 L 222.857 89.751 218.631 89.816 L 214.405 89.881 214.340 94.107 L 214.275 98.333 210.114 98.333 L 205.952 98.333 205.952 102.619 L 205.952 106.905 210.114 106.905 L 214.275 106.905 214.340 102.679 L 214.405 98.452 218.631 98.387 L 222.857 98.322 222.857 94.042 L 222.857 89.762 239.762 89.762 L 256.667 89.762 256.667 85.595 L 256.667 81.429 239.762 81.429 L 222.857 81.429 222.857 85.590 M137.619 102.738 L 137.619 115.476 141.905 115.476 L 146.190 115.476 146.190 123.929 L 146.190 132.381 150.357 132.381 L 154.524 132.381 154.524 136.548 L 154.524 140.714 158.810 140.714 L 163.095 140.714 163.095 145.000 L 163.095 149.286 167.375 149.286 L 171.656 149.286 171.721 153.512 L 171.786 157.738 175.952 157.738 L 180.119 157.738 180.184 153.512 L 180.249 149.286 175.958 149.286 L 171.667 149.286 171.667 145.000 L 171.667 140.714 167.381 140.714 L 163.095 140.714 163.095 136.553 L 163.095 132.392 158.869 132.327 L 154.643 132.262 154.580 123.869 L 154.518 115.476 150.354 115.476 L 146.190 115.476 146.190 102.738 L 146.190 90.000 141.905 90.000 L 137.619 90.000 137.619 102.738 M256.667 102.738 L 256.667 115.476 252.503 115.476 L 248.339 115.476 248.277 123.869 L 248.214 132.262 243.988 132.327 L 239.762 132.392 239.762 136.553 L 239.762 140.714 235.476 140.714 L 231.190 140.714 231.190 145.000 L 231.190 149.286 227.018 149.286 L 222.846 149.286 222.911 153.512 L 222.976 157.738 227.143 157.738 L 231.310 157.738 231.375 153.512 L 231.440 149.286 235.601 149.286 L 239.762 149.286 239.762 145.000 L 239.762 140.714 244.048 140.714 L 248.333 140.714 248.333 136.548 L 248.333 132.381 252.500 132.381 L 256.667 132.381 256.667 123.934 L 256.667 115.487 261.012 115.422 L 265.357 115.357 265.419 102.679 L 265.480 90.000 261.074 90.000 L 256.667 90.000 256.667 102.738 M115.714 214.405 L 115.714 220.000 121.190 220.000 L 126.667 220.000 126.667 214.405 L 126.667 208.810 121.190 208.810 L 115.714 208.810 115.714 214.405 M276.369 211.829 L 275.714 211.936 275.714 219.659 L 275.714 227.381 283.452 227.381 L 291.190 227.381 291.190 219.643 L 291.190 211.905 284.792 211.905 C 281.272 211.905,278.085 211.864,277.708 211.813 C 277.332 211.763,276.729 211.770,276.369 211.829 M212.251 246.965 C 212.186 247.135,212.162 249.628,212.198 252.506 L 212.262 257.738 217.802 257.802 L 223.342 257.866 223.278 252.326 L 223.214 246.786 217.792 246.722 C 213.532 246.671,212.344 246.724,212.251 246.965 M138.571 265.357 L 138.571 273.095 146.310 273.095 L 154.048 273.095 154.048 265.357 L 154.048 257.619 146.310 257.619 L 138.571 257.619 138.571 265.357 M294.286 278.452 L 294.286 284.048 299.762 284.048 L 305.238 284.048 305.238 278.452 L 305.238 272.857 299.762 272.857 L 294.286 272.857 294.286 278.452 M38.571 282.976 L 38.571 288.571 44.048 288.571 L 49.524 288.571 49.524 282.976 L 49.524 277.381 44.048 277.381 L 38.571 277.381 38.571 282.976 M352.619 285.123 L 352.619 290.723 358.155 290.659 L 363.690 290.595 363.754 285.060 L 363.818 279.524 358.219 279.524 L 352.619 279.524 352.619 285.123 M242.381 306.905 L 242.381 314.762 250.119 314.762 L 257.857 314.762 257.857 306.905 L 257.857 299.048 250.119 299.048 L 242.381 299.048 242.381 306.905 M88.333 305.000 L 88.333 310.476 93.810 310.476 L 99.286 310.476 99.286 305.000 L 99.286 299.524 93.810 299.524 L 88.333 299.524 88.333 305.000 M176.190 309.167 L 176.190 314.762 181.667 314.762 L 187.143 314.762 187.143 309.167 L 187.143 303.571 181.667 303.571 L 176.190 303.571 176.190 309.167 " stroke="none" fill="#24bb4c" fill-rule="evenodd"></path><path id="path1" d="M193.810 196.464 C 192.173 196.849,180.601 199.458,168.095 202.263 C 129.382 210.943,133.001 210.028,131.814 211.438 C 130.551 212.940,131.346 215.386,133.253 215.864 C 134.979 216.298,136.233 216.035,187.500 204.485 C 200.410 201.576,201.395 201.388,202.619 201.598 C 203.826 201.805,222.925 206.074,254.133 213.114 C 261.055 214.675,267.139 215.952,267.652 215.952 C 271.268 215.952,272.605 212.054,269.555 210.399 C 268.214 209.671,268.939 209.846,244.762 204.427 C 233.958 202.006,220.800 199.055,215.520 197.870 L 205.921 195.714 201.354 195.739 C 197.183 195.762,196.527 195.825,193.810 196.464 M193.496 206.573 C 193.126 206.773,185.792 215.153,177.197 225.195 C 168.601 235.236,159.984 245.302,158.046 247.562 C 154.967 251.155,154.524 251.777,154.524 252.503 C 154.524 254.040,156.082 254.935,157.358 254.132 C 157.885 253.800,191.125 215.190,195.655 209.648 C 197.440 207.464,195.899 205.271,193.496 206.573 M203.180 206.427 C 202.541 206.684,201.905 207.573,201.905 208.207 C 201.905 209.375,212.175 241.797,212.843 242.738 C 214.134 244.556,216.103 243.945,216.036 241.747 C 216.009 240.843,206.633 209.945,205.587 207.313 C 205.269 206.510,204.068 206.068,203.180 206.427 M109.740 222.086 C 107.980 222.544,106.832 223.455,96.704 232.429 C 66.158 259.494,54.059 270.279,53.403 271.027 C 50.459 274.385,53.484 278.089,57.262 275.753 C 58.036 275.274,60.433 273.164,91.490 245.621 C 113.626 225.990,113.281 226.331,113.015 224.348 C 112.828 222.957,111.067 221.740,109.740 222.086 M269.515 222.334 C 268.729 222.744,267.420 223.501,256.667 229.764 C 246.290 235.808,239.798 239.581,233.333 243.324 C 226.238 247.433,225.884 247.734,226.435 249.185 C 227.217 251.241,227.984 251.041,235.012 246.945 C 240.741 243.606,248.528 239.076,264.881 229.571 C 272.831 224.950,273.097 224.760,273.092 223.708 C 273.083 222.051,271.342 221.382,269.515 222.334 M125.627 223.113 C 124.427 224.057,124.495 224.230,132.026 239.451 C 139.730 255.022,139.854 255.238,141.084 255.238 C 142.758 255.238,143.317 253.710,142.405 251.627 C 140.803 247.967,128.526 223.547,128.079 223.131 C 127.385 222.484,126.435 222.477,125.627 223.113 M296.905 225.882 C 295.696 226.324,295.030 227.794,295.359 229.294 C 295.596 230.374,296.577 231.379,302.619 236.738 C 309.839 243.142,309.168 242.553,325.476 256.795 C 333.399 263.714,341.220 270.549,342.857 271.983 C 347.536 276.084,348.967 276.720,350.714 275.477 C 352.818 273.978,352.012 271.664,348.172 268.174 C 346.281 266.455,318.346 241.961,313.349 237.641 C 312.227 236.671,310.399 235.058,309.286 234.058 C 300.755 226.390,298.888 225.157,296.905 225.882 M288.203 233.203 C 287.295 234.112,287.046 232.680,292.064 255.357 C 295.277 269.875,295.087 269.286,296.536 269.286 C 298.788 269.286,298.837 267.075,296.785 257.976 C 296.047 254.702,295.080 250.363,294.638 248.333 C 292.798 239.901,291.419 233.999,291.188 233.567 C 290.614 232.495,289.097 232.310,288.203 233.203 M203.929 253.142 C 203.274 253.268,199.363 254.108,195.238 255.009 C 191.113 255.910,182.006 257.883,175.000 259.394 C 156.392 263.407,157.143 263.179,157.143 264.814 C 157.143 267.028,158.292 267.077,166.817 265.226 C 170.466 264.433,174.417 263.582,175.595 263.333 C 176.774 263.085,180.738 262.228,184.405 261.430 C 188.071 260.632,192.518 259.667,194.286 259.285 C 206.955 256.552,207.857 256.258,207.857 254.864 C 207.857 253.143,206.658 252.618,203.929 253.142 M229.104 255.009 C 227.884 255.499,227.901 257.268,229.135 258.203 C 229.579 258.539,237.799 261.535,249.405 265.591 C 260.143 269.344,269.893 272.773,271.071 273.211 C 276.848 275.359,286.844 278.651,288.393 278.916 C 289.995 279.191,291.022 277.553,290.086 276.216 C 289.446 275.301,285.018 273.622,267.738 267.738 C 263.024 266.133,252.702 262.557,244.802 259.791 C 230.175 254.670,230.045 254.631,229.104 255.009 M223.517 261.131 C 222.401 262.403,223.522 264.569,239.506 292.024 C 241.410 295.295,242.325 295.878,243.699 294.696 C 244.927 293.640,244.761 293.167,240.679 286.071 C 238.645 282.536,234.766 275.786,232.058 271.071 C 226.208 260.887,224.984 259.461,223.517 261.131 M210.111 261.655 C 209.383 261.950,209.665 261.534,199.048 277.976 C 196.596 281.774,192.856 287.546,190.738 290.802 C 186.118 297.906,186.106 297.929,186.295 298.934 C 186.481 299.924,186.976 300.333,187.987 300.333 C 189.358 300.333,188.782 301.124,199.759 284.167 C 202.726 279.583,206.822 273.260,208.862 270.114 C 212.683 264.221,212.837 263.915,212.540 262.782 C 212.396 262.234,211.138 261.337,210.662 261.444 C 210.625 261.452,210.377 261.547,210.111 261.655 M126.667 267.272 C 124.375 267.706,108.036 270.694,90.357 273.911 C 72.679 277.129,57.916 279.883,57.550 280.032 C 55.896 280.708,56.115 283.014,57.894 283.639 C 58.111 283.715,65.021 282.549,73.251 281.048 C 81.481 279.547,90.250 277.953,92.738 277.506 C 137.744 269.413,134.386 270.179,133.931 268.108 C 133.523 266.247,132.626 266.144,126.667 267.272 M131.158 275.399 C 129.393 276.608,126.133 278.955,117.337 285.349 C 113.188 288.366,108.584 291.690,107.107 292.738 C 101.391 296.792,100.830 297.552,102.444 299.056 C 103.702 300.227,102.661 300.872,122.024 286.912 C 135.835 276.955,135.425 277.315,134.760 275.709 C 134.185 274.321,132.892 274.210,131.158 275.399 M156.436 277.211 C 155.629 277.617,155.128 278.578,155.322 279.349 C 155.453 279.870,162.905 288.555,169.876 296.310 C 170.817 297.357,172.158 298.857,172.855 299.643 C 174.496 301.494,175.724 302.156,176.597 301.660 C 178.497 300.582,178.038 299.589,172.987 293.854 C 162.028 281.407,158.548 277.506,158.274 277.360 C 157.567 276.982,156.985 276.935,156.436 277.211 M309.199 278.393 C 306.218 281.103,308.520 281.646,340.357 285.729 C 343.369 286.115,346.062 286.483,346.342 286.547 C 348.676 287.076,350.662 285.104,349.285 283.625 C 348.501 282.784,349.196 282.896,322.375 279.285 C 310.320 277.661,310.026 277.641,309.199 278.393 M288.995 283.299 C 287.740 283.959,284.785 286.032,275.357 292.868 C 273.000 294.577,269.253 297.229,267.031 298.762 C 261.378 302.659,260.509 303.601,261.045 305.249 C 261.771 307.481,263.008 306.876,274.069 298.871 C 278.729 295.498,283.318 292.202,284.267 291.548 C 291.059 286.860,292.143 285.898,292.143 284.560 C 292.143 282.878,290.809 282.344,288.995 283.299 M300.175 287.308 C 298.961 287.624,298.849 288.927,299.637 293.548 C 299.958 295.435,300.179 297.045,300.129 297.127 C 300.078 297.209,300.189 298.131,300.376 299.174 C 300.885 302.019,302.129 309.651,302.392 311.548 C 302.843 314.789,305.501 330.130,305.746 330.901 C 306.201 332.333,307.785 332.951,308.687 332.049 C 309.472 331.264,309.476 329.959,308.708 325.159 C 308.390 323.173,307.682 318.708,307.134 315.238 C 306.587 311.768,305.934 307.750,305.684 306.310 C 305.175 303.375,304.023 296.239,303.418 292.262 C 302.758 287.928,302.034 286.823,300.175 287.308 M53.613 288.170 C 52.841 288.992,52.907 290.312,53.750 290.904 C 54.568 291.480,79.924 304.020,80.626 304.196 C 82.331 304.624,83.616 302.214,82.321 301.015 C 82.027 300.742,75.966 297.617,68.853 294.069 C 54.965 287.143,54.681 287.033,53.613 288.170 M38.151 292.321 C 36.811 293.476,35.928 295.592,28.547 315.327 C 25.341 323.900,23.571 328.946,23.571 329.518 C 23.571 332.383,27.423 333.662,29.126 331.361 C 29.725 330.553,42.560 296.504,42.782 295.135 C 43.234 292.350,40.234 290.527,38.151 292.321 M352.768 293.869 C 352.442 294.164,350.840 296.869,349.208 299.881 C 344.382 308.783,340.159 316.416,339.394 317.619 C 337.432 320.703,332.619 330.080,332.619 330.818 C 332.619 333.482,335.152 332.767,337.318 329.491 C 338.665 327.454,339.294 326.344,343.919 317.857 C 345.381 315.173,348.687 309.115,351.265 304.395 C 354.143 299.126,355.952 295.560,355.952 295.158 C 355.952 293.611,353.949 292.800,352.768 293.869 M362.649 295.261 C 361.067 296.735,361.184 297.284,365.624 309.232 C 367.801 315.089,370.434 322.178,371.475 324.985 C 373.726 331.057,373.852 331.316,374.833 331.914 C 377.011 333.243,380.162 331.257,379.630 328.892 C 379.104 326.550,369.059 299.995,367.624 297.152 C 366.455 294.837,364.076 293.932,362.649 295.261 M214.126 305.340 L 193.371 305.595 192.757 306.172 C 191.758 307.112,192.016 308.830,193.226 309.290 C 193.580 309.425,202.459 309.424,216.091 309.288 C 241.403 309.036,240.050 309.150,240.190 307.250 C 240.302 305.723,238.722 304.918,235.860 305.043 C 235.322 305.066,225.541 305.200,214.126 305.340 M104.286 307.213 C 102.900 307.914,102.844 309.744,104.186 310.513 C 104.952 310.952,103.191 310.882,145.179 312.138 C 149.467 312.266,156.702 312.492,161.256 312.641 C 169.996 312.925,170.672 312.874,171.200 311.888 C 171.586 311.166,171.456 310.297,170.857 309.601 L 170.286 308.936 165.441 308.771 C 162.776 308.680,156.631 308.489,151.786 308.346 C 133.736 307.815,127.135 307.623,122.381 307.493 C 119.696 307.419,114.875 307.258,111.667 307.135 C 104.467 306.858,104.998 306.853,104.286 307.213 M85.363 313.181 C 84.314 313.947,73.571 329.706,73.571 330.478 C 73.571 331.734,74.783 332.757,75.964 332.497 C 76.538 332.371,77.114 331.681,79.208 328.613 C 80.608 326.560,81.824 324.827,81.911 324.762 C 82.103 324.617,86.167 318.754,87.425 316.808 C 89.098 314.220,87.584 311.556,85.363 313.181 M98.327 314.649 C 97.226 315.821,97.412 316.242,102.117 323.214 C 106.947 330.371,107.241 330.714,108.540 330.714 C 110.974 330.714,110.999 328.915,108.610 325.595 C 108.139 324.940,106.275 322.211,104.469 319.530 C 100.601 313.790,99.761 313.123,98.327 314.649 M189.107 315.396 C 188.943 315.462,188.810 315.668,188.810 315.853 C 188.810 316.039,188.649 316.190,188.452 316.190 C 187.973 316.190,187.976 317.581,188.456 318.267 C 189.030 319.085,202.490 330.748,204.279 331.977 C 206.102 333.229,208.235 331.858,207.280 330.048 C 206.122 327.854,190.851 315.105,189.564 315.257 C 189.476 315.267,189.271 315.330,189.107 315.396 M259.600 316.000 C 257.418 317.045,258.665 318.882,267.800 328.075 C 271.976 332.279,272.307 332.476,273.668 331.584 C 275.492 330.389,274.867 329.445,266.906 321.365 C 261.751 316.133,260.793 315.429,259.600 316.000 M172.582 317.597 C 171.819 318.197,166.908 327.971,166.740 329.225 C 166.532 330.778,168.882 331.741,169.998 330.560 C 170.713 329.801,175.714 319.837,175.714 319.169 C 175.714 317.669,173.747 316.681,172.582 317.597 " stroke="none" fill="#545354" fill-rule="evenodd"></path><path id="path2" d="M67.052 342.870 C 61.504 344.258,58.132 350.473,58.662 358.333 C 59.239 366.911,63.954 371.751,71.071 371.072 C 77.508 370.458,80.282 366.538,80.803 357.321 L 80.948 354.762 75.355 354.762 L 69.762 354.762 69.762 357.619 L 69.762 360.476 71.221 360.476 L 72.680 360.476 72.524 361.454 C 71.890 365.415,67.998 365.532,67.152 361.614 C 66.612 359.117,66.813 353.911,67.537 351.614 C 68.439 348.750,71.665 348.474,72.266 351.209 C 72.350 351.592,72.491 351.905,72.578 351.905 C 73.103 351.905,80.000 349.444,80.000 349.256 C 80.000 347.889,77.151 344.789,74.847 343.650 C 72.914 342.695,69.225 342.326,67.052 342.870 M250.952 342.998 C 243.874 344.877,239.936 353.019,241.993 361.521 C 243.752 368.794,251.308 373.059,257.700 370.388 L 258.495 370.056 258.652 367.134 C 258.739 365.526,258.810 363.805,258.810 363.309 L 258.810 362.406 257.476 363.108 C 253.162 365.377,249.762 362.605,249.762 356.818 C 249.762 351.017,253.264 347.961,257.302 350.240 L 258.571 350.956 258.571 347.067 L 258.571 343.177 257.363 342.898 C 255.735 342.522,252.558 342.572,250.952 342.998 M23.333 356.934 L 23.333 370.772 28.512 370.652 C 39.593 370.395,43.637 366.756,43.657 357.024 C 43.676 347.284,38.949 343.095,27.938 343.095 L 23.333 343.095 23.333 356.934 M47.143 356.911 L 47.143 370.726 51.131 370.661 L 55.119 370.595 55.181 356.845 L 55.242 343.095 51.192 343.095 L 47.143 343.095 47.143 356.911 M84.286 356.905 L 84.286 370.714 88.214 370.714 L 92.143 370.714 92.143 356.905 L 92.143 343.095 88.214 343.095 L 84.286 343.095 84.286 356.905 M94.339 346.369 L 94.405 349.643 96.607 349.711 L 98.810 349.780 98.810 360.247 L 98.810 370.714 102.738 370.714 L 106.667 370.714 106.667 360.247 L 106.667 349.779 108.988 349.711 L 111.310 349.643 111.376 346.369 L 111.442 343.095 102.857 343.095 L 94.272 343.095 94.339 346.369 M117.978 343.393 C 117.852 343.758,110.952 370.517,110.952 370.639 C 110.952 370.686,112.801 370.696,115.060 370.660 L 119.167 370.595 119.511 368.869 L 119.856 367.143 122.530 367.143 L 125.204 367.143 125.447 368.393 C 125.581 369.080,125.723 369.857,125.765 370.119 C 125.847 370.646,134.048 371.019,134.048 370.496 C 134.048 370.259,128.171 344.258,127.949 343.512 C 127.789 342.976,118.161 342.861,117.978 343.393 M136.429 356.908 L 136.429 370.721 143.393 370.658 L 150.357 370.595 150.423 367.329 L 150.490 364.062 147.447 363.995 L 144.405 363.929 144.343 353.512 L 144.281 343.095 140.355 343.095 L 136.429 343.095 136.429 356.908 M159.048 343.230 C 159.048 343.304,157.494 349.388,155.595 356.749 C 153.696 364.110,152.143 370.264,152.143 370.424 C 152.143 370.641,153.161 370.714,156.174 370.714 C 160.660 370.714,160.294 370.862,160.603 368.929 C 160.909 367.020,160.697 367.143,163.674 367.143 L 166.363 367.143 166.652 368.934 L 166.941 370.725 171.030 370.660 C 173.577 370.620,175.109 370.505,175.092 370.357 C 175.077 370.226,173.689 364.039,172.008 356.607 L 168.951 343.095 163.999 343.095 C 161.276 343.095,159.048 343.156,159.048 343.230 M177.619 356.905 L 177.619 370.714 181.548 370.714 L 185.476 370.714 185.476 365.190 C 185.476 362.152,185.562 359.768,185.667 359.893 C 185.772 360.017,186.800 362.503,187.952 365.417 L 190.046 370.714 194.309 370.714 C 196.653 370.714,198.571 370.653,198.571 370.578 C 198.571 370.502,197.267 367.910,195.672 364.818 C 193.784 361.157,192.875 359.161,193.066 359.097 C 197.768 357.530,198.744 349.520,194.688 345.781 C 192.283 343.564,190.219 343.095,182.867 343.095 L 177.619 343.095 177.619 356.905 M199.577 346.369 L 199.643 349.643 201.845 349.711 L 204.048 349.780 204.048 360.253 L 204.048 370.726 207.984 370.661 L 211.920 370.595 211.972 360.238 L 212.024 349.881 214.286 349.762 L 216.548 349.643 216.614 346.369 L 216.680 343.095 208.095 343.095 L 199.510 343.095 199.577 346.369 M225.689 344.936 C 225.130 345.953,223.139 349.554,221.265 352.937 L 217.857 359.088 217.857 362.044 L 217.857 365.000 223.214 365.000 L 228.571 365.000 228.571 367.863 L 228.571 370.726 232.560 370.661 L 236.548 370.595 236.615 367.798 L 236.682 365.000 237.865 365.000 L 239.048 365.000 239.048 362.024 L 239.048 359.048 237.860 359.048 L 236.673 359.048 236.610 351.131 L 236.548 343.214 231.626 343.150 L 226.705 343.086 225.689 344.936 M262.143 356.905 L 262.143 370.714 269.167 370.714 L 276.190 370.714 276.190 367.381 L 276.190 364.048 273.214 364.048 L 270.238 364.048 270.238 353.571 L 270.238 343.095 266.190 343.095 L 262.143 343.095 262.143 356.905 M278.571 356.911 L 278.571 370.726 282.560 370.661 C 284.753 370.625,286.521 370.515,286.488 370.417 C 286.455 370.318,286.429 364.131,286.429 356.667 L 286.429 343.095 282.500 343.095 L 278.571 343.095 278.571 356.911 M293.332 343.507 C 293.331 343.739,292.581 349.861,291.665 357.113 C 290.749 364.364,290.000 370.390,290.000 370.505 C 290.000 370.856,298.330 370.768,298.447 370.417 C 298.557 370.086,299.275 357.846,299.316 355.595 C 299.350 353.762,299.356 353.785,300.965 363.210 C 301.635 367.137,302.234 370.431,302.296 370.532 C 302.358 370.632,303.834 370.714,305.577 370.714 L 308.744 370.714 309.234 368.393 C 309.503 367.116,310.168 363.768,310.710 360.952 C 311.253 358.137,311.785 355.405,311.892 354.881 L 312.086 353.929 312.118 355.238 C 312.136 355.958,312.308 359.601,312.500 363.333 C 312.692 367.065,312.851 370.253,312.853 370.417 C 312.856 370.643,313.851 370.714,317.024 370.714 C 319.875 370.714,321.190 370.632,321.190 370.454 C 321.190 370.076,318.607 345.304,318.443 344.107 L 318.304 343.095 313.368 343.095 L 308.433 343.095 307.183 349.345 C 306.495 352.783,305.934 355.863,305.935 356.190 C 305.940 357.264,305.549 356.176,305.379 354.643 C 305.292 353.857,304.817 350.964,304.323 348.214 L 303.425 343.214 298.379 343.150 C 293.687 343.090,293.333 343.115,293.332 343.507 M329.872 343.626 C 329.796 343.923,328.204 350.060,326.335 357.262 C 324.466 364.464,322.979 370.438,323.030 370.536 C 323.081 370.634,324.934 370.714,327.146 370.714 L 331.169 370.714 331.326 369.821 C 331.412 369.330,331.555 368.554,331.645 368.095 L 331.807 367.262 334.529 367.262 L 337.251 367.262 337.437 368.452 C 337.833 370.973,337.322 370.714,341.909 370.714 C 345.605 370.714,345.952 370.678,345.943 370.298 C 345.938 370.068,344.565 363.881,342.893 356.548 L 339.852 343.214 334.932 343.150 L 330.011 343.086 329.872 343.626 M346.429 346.429 L 346.429 349.762 348.569 349.762 L 350.709 349.762 350.771 360.179 L 350.833 370.595 354.821 370.661 L 358.810 370.726 358.810 360.244 L 358.810 349.762 361.071 349.762 L 363.333 349.762 363.333 346.429 L 363.333 343.095 354.881 343.095 L 346.429 343.095 346.429 346.429 M365.476 356.908 L 365.476 370.721 372.917 370.658 L 380.357 370.595 380.423 367.321 L 380.490 364.048 377.031 364.048 L 373.571 364.048 373.571 361.905 L 373.571 359.762 376.674 359.762 L 379.776 359.762 379.709 356.726 L 379.643 353.690 376.607 353.624 L 373.571 353.557 373.571 351.541 L 373.571 349.524 377.024 349.524 L 380.476 349.524 380.476 346.310 L 380.476 343.095 372.976 343.095 L 365.476 343.095 365.476 356.908 M187.727 349.623 C 190.414 350.746,189.455 355.714,186.551 355.714 L 185.714 355.714 185.714 352.500 L 185.714 349.286 186.317 349.286 C 186.649 349.286,187.283 349.437,187.727 349.623 M33.573 350.863 C 36.774 353.755,36.016 362.467,32.457 363.691 C 31.145 364.142,31.190 364.385,31.190 356.891 L 31.190 350.000 31.904 350.000 C 32.390 350.000,32.923 350.276,33.573 350.863 M164.875 357.926 C 165.419 361.416,165.501 361.190,163.690 361.190 C 162.731 361.190,162.143 361.092,162.143 360.931 C 162.143 360.788,162.456 358.832,162.839 356.585 C 163.222 354.338,163.614 351.964,163.710 351.310 C 163.876 350.174,163.899 350.246,164.198 352.857 C 164.370 354.363,164.675 356.644,164.875 357.926 M123.329 354.425 C 123.587 356.509,123.908 358.791,124.042 359.497 C 124.176 360.202,124.286 360.872,124.286 360.985 C 124.286 361.098,123.524 361.190,122.593 361.190 L 120.901 361.190 121.065 360.538 C 121.360 359.359,122.619 351.649,122.619 351.016 C 122.619 349.582,122.889 350.878,123.329 354.425 M335.096 352.791 C 335.186 353.810,335.469 356.025,335.725 357.713 C 335.981 359.402,336.190 360.875,336.190 360.987 C 336.190 361.099,335.433 361.190,334.508 361.190 C 332.993 361.190,332.839 361.148,332.962 360.760 C 333.184 360.061,334.524 351.927,334.524 351.280 C 334.524 349.954,334.944 351.064,335.096 352.791 M228.887 355.194 L 228.735 359.048 226.602 359.048 L 224.469 359.048 224.906 358.393 C 225.661 357.263,228.249 352.683,228.569 351.912 C 229.029 350.800,229.051 351.026,228.887 355.194 " stroke="none" fill="#040404" fill-rule="evenodd"></path><path id="path3" d="M199.358 195.654 C 200.641 195.697,202.677 195.697,203.881 195.653 C 205.086 195.610,204.036 195.575,201.548 195.575 C 199.060 195.576,198.074 195.611,199.358 195.654 " stroke="none" fill="#3c844c" fill-rule="evenodd"></path><path id="path4" d="" stroke="none" fill="#30242c" fill-rule="evenodd"></path></g></svg>