<svg width="64" height="64" viewBox="0 0 64 64" fill="none" xmlns="http://www.w3.org/2000/svg">
	<path fill-rule="evenodd" clip-rule="evenodd" d="M15.75 21.1666C15.75 19.7859 16.8693 18.6666 18.25 18.6666H45.75C47.1307 18.6666 48.25 19.7859 48.25 21.1666V43.6666C48.25 45.0473 47.1307 46.1666 45.75 46.1666H18.25C16.8693 46.1666 15.75 45.0473 15.75 43.6666V21.1666ZM45.75 21.1666H18.25V43.6666H45.75V21.1666Z" fill="#9CAAB7" />
	<path fill-rule="evenodd" clip-rule="evenodd" d="M24.7933 28.0236C25.0966 27.8979 25.4217 27.8333 25.75 27.8333C26.0783 27.8333 26.4034 27.8979 26.7067 28.0236C27.01 28.1492 27.2856 28.3333 27.5177 28.5655L34.5 35.5477L37.7322 32.3155C37.9644 32.0833 38.24 31.8992 38.5433 31.7736C38.8466 31.6479 39.1717 31.5833 39.5 31.5833C39.8283 31.5833 40.1534 31.6479 40.4567 31.7736C40.76 31.8992 41.0356 32.0833 41.2677 32.3155L47.8839 38.9316C48.1183 39.166 48.25 39.484 48.25 39.8155V43.5655C48.25 44.2558 47.6903 44.8155 47 44.8155H17C16.3096 44.8155 15.75 44.2558 15.75 43.5655V37.3155C15.75 36.9839 15.8817 36.666 16.1161 36.4316L23.9822 28.5655C24.2144 28.3333 24.49 28.1492 24.7933 28.0236ZM18.25 37.8332V44.1353H45.75V40.3333L39.5 34.0833L36.2677 37.3155C36.0356 37.5476 35.76 37.7318 35.4567 37.8574C35.1534 37.9831 34.8283 38.0477 34.5 38.0477C34.1717 38.0477 33.8466 37.9831 33.5433 37.8574C33.24 37.7318 32.9644 37.5476 32.7322 37.3155L25.75 30.3333L18.25 37.8332Z" fill="#9CAAB7" />
	<path d="M36.375 29.5C37.4105 29.5 38.25 28.6605 38.25 27.625C38.25 26.5895 37.4105 25.75 36.375 25.75C35.3395 25.75 34.5 26.5895 34.5 27.625C34.5 28.6605 35.3395 29.5 36.375 29.5Z" fill="#9CAAB7" />
</svg>